<svg width="227" height="28" viewBox="0 0 227 28" fill="none" xmlns="http://www.w3.org/2000/svg">
<path fill-rule="evenodd" clip-rule="evenodd" d="M99.9633 25.8541C93.4202 25.8541 88.104 20.5379 88.104 13.9949C88.104 7.45181 93.4202 2.13558 99.9633 2.13558C106.506 2.13558 111.823 7.45181 111.823 13.9949C111.868 20.5833 106.506 25.8541 99.9633 25.8541ZM99.9633 0.318065C92.4206 0.318065 86.2865 6.45217 86.2865 13.9949C86.2865 21.5375 92.4206 27.6716 99.9633 27.6716C107.506 27.6716 113.64 21.5375 113.64 13.9949C113.686 6.40674 107.551 0.318065 99.9633 0.318065ZM80.6522 26.3994H82.3334V0.681568H80.6522V26.3994ZM73.6093 12.6317H57.9333V0.727006H56.2521V26.4448H57.9333V14.1766H73.6093V26.4448H75.2905V0.727006H73.6093V12.6317ZM50.9813 14.9491C50.2543 14.3129 49.4364 13.7677 48.5276 13.2679C47.6189 12.8135 46.801 12.3591 45.9377 11.9956C45.0289 11.5867 44.2565 11.1777 43.6203 10.8142C42.9842 10.4053 42.439 10.0418 41.9846 9.58739C41.5302 9.17845 41.2121 8.67863 40.9849 8.17881C40.7578 7.63356 40.6669 6.99743 40.6669 6.27042C40.6669 4.77097 41.2121 3.63503 42.2572 2.90802C43.3477 2.18102 44.6654 1.81751 46.3012 1.81751C47.3008 1.81751 48.255 1.95383 49.2092 2.22645C50.1634 2.49908 51.1176 2.81715 52.0263 3.27153L52.4353 1.81751C51.572 1.36314 50.6178 1.04507 49.5727 0.772443C48.4822 0.499816 47.3917 0.363503 46.2103 0.363503C45.2561 0.363503 44.3473 0.499816 43.484 0.727006C42.6207 0.954195 41.8483 1.3177 41.1667 1.81751C40.4851 2.31733 39.9853 2.95346 39.5764 3.68047C39.1674 4.45291 38.9857 5.31623 38.9857 6.3613C38.9857 7.31549 39.1674 8.13338 39.4855 8.81494C39.8036 9.49651 40.2579 10.1326 40.8486 10.6779C41.4393 11.2231 42.1209 11.723 42.9388 12.1773C43.7567 12.6317 44.62 13.0861 45.5742 13.5405C46.392 13.9494 47.1645 14.3129 47.8915 14.7219C48.6185 15.1308 49.3001 15.5397 49.8908 16.0396C50.4815 16.5394 50.9358 17.1301 51.2993 17.7662C51.6628 18.4023 51.8446 19.1748 51.8446 20.0835C51.8446 21.7647 51.2539 23.0824 50.0725 24.0366C48.8911 24.9908 47.3008 25.4906 45.3015 25.4906C44.1202 25.4906 43.0296 25.3543 41.9846 25.1271C40.9395 24.8999 39.8944 24.5364 38.8494 24.0821L38.4404 25.4906C39.3492 25.945 40.4851 26.2631 41.7574 26.5357C43.0296 26.8083 44.2565 26.9446 45.3924 26.9446C46.6192 26.9446 47.7097 26.7629 48.7094 26.4448C49.709 26.1268 50.5723 25.6269 51.2993 25.0363C52.0263 24.4001 52.5716 23.6731 52.9805 22.8552C53.3895 21.9919 53.5712 21.0832 53.5712 20.0835C53.5712 18.993 53.344 17.9934 52.8442 17.1755C52.3444 16.3576 51.7083 15.5852 50.9813 14.9491ZM18.266 18.0388L24.0821 2.90802L29.8981 18.0388H18.266ZM23.4459 0.727006L13.2679 26.4448H14.9491L17.6299 19.4928H30.4434L33.1696 26.4448H34.8508L24.6728 0.727006H23.4459ZM1.6812 2.22645H13.3133V0.772443H0V26.4903H1.6812V14.4947H12.8589V13.0407H1.6812V2.22645ZM211.377 16.7211L213.376 9.63282L215.375 16.7211H211.377ZM226.462 25.945L218.056 1.22682C217.965 0.999633 217.556 0.727006 217.147 0.727006H209.559C209.196 0.727006 208.787 0.999633 208.651 1.22682L200.245 25.945C200.154 26.1722 200.29 26.4448 200.563 26.4448H207.924C208.242 26.4448 208.56 26.2631 208.696 25.945L209.832 22.0374H216.829L217.965 25.945C218.102 26.2631 218.42 26.4448 218.738 26.4448H226.099C226.462 26.3994 226.599 26.1722 226.462 25.945ZM169.165 19.5837C165.894 19.5837 163.213 16.9029 163.213 13.6314C163.213 10.3598 165.894 7.679 169.165 7.679C172.437 7.679 175.117 10.3598 175.117 13.6314C175.163 16.8574 172.482 19.5837 169.165 19.5837ZM204.925 0.727006H196.61C196.292 0.727006 195.973 0.999633 195.883 1.22682L191.975 16.5394L188.067 1.22682C187.976 0.954195 187.704 0.727006 187.34 0.727006H179.025C178.707 0.727006 178.525 0.999633 178.662 1.22682L180.207 5.72517C177.753 2.27189 173.709 0 169.12 0C162.304 0 156.624 5.08904 155.67 11.6321V1.3177C155.67 0.999633 155.443 0.772443 155.125 0.772443H148.582C148.309 0.772443 148.082 1.04507 148.082 1.3177V12.8135L141.63 1.22682C141.493 0.908757 141.13 0.727006 140.766 0.727006H133.133V23.8094L117.002 0.727006H115.412V26.4448H117.048V3.3624L133.133 26.4448H140.903C141.221 26.4448 141.448 26.1722 141.448 25.945V14.4038L147.946 25.9904C148.127 26.3085 148.445 26.4903 148.718 26.4903H155.17C155.488 26.4903 155.716 26.2176 155.716 25.9904V15.6306C156.67 22.2191 162.349 27.2627 169.165 27.2627C176.662 27.2627 182.751 21.174 182.751 13.6768V13.0407L187.249 26.0359C187.34 26.3085 187.613 26.5357 187.931 26.5357H196.11C196.428 26.5357 196.7 26.2631 196.791 26.0359L205.334 1.36314C205.425 0.954195 205.243 0.727006 204.925 0.727006Z" fill="#C7C7C7"/>
</svg>
