<svg width="194" height="94" viewBox="0 0 194 94" fill="none" xmlns="http://www.w3.org/2000/svg">
<path fill-rule="evenodd" clip-rule="evenodd" d="M97 3.63867L146.374 25.6185H175.014V34.8166H190.677V89.6897H3.32227V34.8166H18.9861V25.6185H47.6257L97 3.63867Z" fill="#2F5693"/>
<path d="M147.081 22.2943H178.34V31.4924H194V93.0123H0V31.4924H15.6626V22.2943H46.9194L97 0L147.081 22.2943ZM48.332 28.9412H22.3095V38.1393H6.64686V86.3654H187.353V38.1393H171.693V28.9412H145.668L97 7.27569L48.332 28.9412Z" fill="#C7C7C7"/>
<path fill-rule="evenodd" clip-rule="evenodd" d="M96.9998 3.63867L146.374 25.6185H175.016V34.8166H190.676V89.6897H3.32324V34.8166H18.9859V25.6185H47.6255L96.9998 3.63867Z" fill="#C7C7C7"/>
<path d="M146.526 24.9056H175.728V34.1037H191.389V90.4008H2.61133V34.1037H18.274V24.9056H47.4742L96.9999 2.8584L146.526 24.9056ZM47.777 26.3296H19.6981V35.5278H4.03539V88.9768H189.964V35.5278H174.304V26.3296H146.223L96.9998 4.41716L47.777 26.3296Z" fill="white"/>
<path fill-rule="evenodd" clip-rule="evenodd" d="M72.3884 44.7931C74.0288 44.7931 75.5207 46.1961 75.9685 47.7547L76.4164 49.6266V72.2308C75.9685 73.6326 75.0741 75.1924 73.5822 75.6589L71.494 75.9722H57.3233C55.981 75.9722 54.6376 75.5045 53.8917 74.257C53.2954 73.4783 53.2954 72.5418 53.1457 71.7631V48.0668C53.4438 46.8193 54.1898 45.5729 55.3836 45.1041L56.5773 44.7919L72.3884 44.7931ZM68.2109 51.8083H61.2003V68.646H68.3605L68.2109 51.8083ZM37.6315 38.0889V68.6448H50.0122V75.9711H29.4272V38.0889H37.6315ZM146.374 38.0889V46.976H139.364V38.0889H146.374ZM165.469 47.4425V53.8334C164.126 53.3657 162.486 52.4315 161.144 51.9626C158.757 51.0273 155.027 49.7797 153.238 51.6505C152.639 52.1181 152.491 52.898 152.491 53.5223C152.938 55.7052 155.325 56.0163 156.815 57.1071C160.544 58.6668 165.616 61.4706 166.064 66.3029C166.959 69.89 165.616 73.1626 163.081 75.3455C158.158 79.5547 145.33 75.0322 145.33 75.0322V67.8615C145.33 67.8615 153.832 71.1364 155.92 70.8231C157.114 70.6675 158.158 70.0444 158.605 68.9523C158.756 68.0181 158.756 67.0816 158.158 66.3006C153.981 63.1835 148.612 62.7158 145.778 57.5725C144.436 54.7664 144.436 50.8683 146.226 48.2188C148.612 44.4774 152.489 43.3865 156.667 43.8542C161.143 44.4809 165.469 47.4425 165.469 47.4425ZM101.178 68.646H105.503V44.7931H113.857V71.2954C113.857 73.0106 112.961 74.8802 111.322 75.6589L109.68 75.9722H99.6847C98.6406 75.8167 97.5965 74.5703 97.0002 73.6338C96.2542 75.0357 95.8064 75.9722 94.3157 75.9722H84.7691C84.0232 75.8167 83.7239 75.8167 83.2772 75.5045C82.3816 75.0369 80.8897 74.4125 80.8897 71.2954V44.7931H89.094V68.646H93.5697V44.7931H101.178V68.646ZM137.574 51.8083H126.535V56.9516H137.574V63.9692H126.535V68.646H137.574V75.9722H118.332V44.7931H137.574V51.8083ZM167.108 47.1315C167.108 45.5729 168.302 44.4809 169.645 44.4809C170.839 44.4809 172.031 45.5729 172.031 47.1315C172.031 48.5345 170.839 49.6266 169.645 49.6266C168.302 49.6266 167.108 48.5345 167.108 47.1315ZM169.645 49.1577C170.689 49.1577 171.584 48.3779 171.584 47.1315C171.584 45.8851 170.688 44.9486 169.645 44.9486C168.451 44.9486 167.556 45.8839 167.556 47.1315C167.556 48.379 168.45 49.1577 169.645 49.1577ZM169.049 48.5345H168.601V45.5729H169.645C170.392 45.5729 170.689 45.8851 170.689 46.5083C170.689 46.976 170.392 47.1315 169.944 47.2882L170.84 48.5345H170.241L169.497 47.2882H169.049V48.5345ZM169.645 46.976C169.944 46.976 170.241 46.8193 170.241 46.3516C170.241 46.0395 169.944 46.0395 169.645 46.0395H169.049V46.9748L169.645 46.976Z" fill="white"/>
</svg>
