<svg width="226" height="38" viewBox="0 0 226 38" fill="none" xmlns="http://www.w3.org/2000/svg">
<path d="M225.812 27.8176L225.117 25.4299L224.466 23.247C224.466 23.247 222.406 16.5327 222.137 15.6484C221.806 14.5672 221.48 13.4845 221.158 12.4005L221.107 12.2174L225.672 6.7324L223.526 0L200.528 0.0218438L199.825 1.14039L199.551 0.0233502L176.397 0.0474537L175.829 1.31816L175.606 0.0459472L152.271 0.0723104L151.86 1.59685L151.704 0.0723104L128.13 0.0949073L127.904 2.58811L127.831 0.0949073L104.137 0.119764L104.059 2.39905L103.814 0.116751L80.3217 0.142361L80.1643 1.61192L79.744 0.143867L68.4161 0.15366L67.5123 6.47253L66.9963 5.16868L66.747 5.14684L64.7667 0.157426L53.5827 0.167971L53.356 1.37992L52.767 0.168724L41.6929 0.179269L41.4414 1.31063L40.7891 0.179269L29.8099 0.191321L28.5325 5.11144L25.5579 5.11445L24.9877 7.26418L19.8161 0.20036L9.13144 0.211658L0 28.5754L9.70767 37.5502H20.2846L21.9643 31.2283L22.7845 32.1404H25.6144L30.3259 37.5479L41.1943 37.5449L41.409 36.522L42.178 37.5464L53.1308 37.5449L53.3266 36.4384L54.0264 37.5449L65.0831 37.5434L65.9373 31.6147L68.7897 37.5434L79.9941 37.5411L80.1349 36.1846L80.623 37.5411L103.93 37.5389L104.012 35.3831L104.269 37.5396L127.763 37.5359L127.989 35.1797L128.068 37.5359L139.594 37.5336L139.954 35.878L140.064 37.5336L151.449 37.5313L151.932 36.1092L152.073 37.5313H163.335L163.915 36.2652L164.083 37.5313H175.237L175.907 36.3759L176.095 37.5306L187.153 37.5261L193.545 28.4135L193.239 26.9537L196.781 26.9514L201.783 20.0239L206.088 37.5246L216.942 37.5231L226 28.5001L225.812 27.8176ZM116.021 20.8917L116.139 17.0193L127.234 17.0125L127.331 15.726L127.506 20.8879L116.021 20.8917Z" fill="#C7C7C7"/>
<path d="M20.3042 6.63315L18.8279 11.7823H25.3795L26.7557 6.69718L29.7505 6.69492L31.0257 1.7635L39.66 1.75446L33.5739 27.9188L24.2655 27.9218L27.0547 16.8116L23.6945 16.8078L22.2408 22.2198L16.2112 22.2221L17.7146 16.8048L14.3092 16.8139L11.0259 27.9255L1.88843 27.9308L10.2772 1.78384L18.7518 1.77556L17.3463 6.52394L20.3042 6.63315ZM51.5664 1.80719L46.4218 27.979L37.1111 27.9828L42.9328 1.81472L51.5664 1.80719ZM64.1582 19.4916L64.9295 14.0811L61.5573 14.0179L59.3277 27.9112L50.0049 27.9127L54.8889 1.74015L63.5315 1.73187L62.7745 6.57741L65.7332 6.65274L65.0319 11.7145L68.359 11.7612L69.7788 1.72434L78.4274 1.7168L75.3972 27.9052L66.0646 27.909L67.2329 19.5677L64.1582 19.4916ZM101.435 22.5053L101.199 27.8969L78.963 27.9037L81.7311 1.71379L102.345 1.6927L102.141 6.3296L90.0144 6.3409L89.6325 11.6836L101.906 11.7167L101.685 16.7784L89.1798 16.7867L88.7595 22.4571L101.435 22.5053ZM222.366 1.5752L223.847 6.22415L217.827 6.22867L217.865 6.37254C218.114 7.3894 218.383 8.42359 218.672 9.47962C218.964 10.5394 219.271 11.6165 219.589 12.708C219.912 13.8032 220.239 14.9142 220.58 16.0252C220.92 17.143 221.266 18.2691 221.61 19.3937C221.819 20.0769 222.028 20.7653 222.24 21.4636C222.456 22.1626 222.672 22.8661 222.884 23.5741C223.1 24.2844 223.312 24.9985 223.524 25.7118C223.734 26.4266 223.945 27.1414 224.145 27.8562L214.75 27.8593L208.844 6.23846L202.819 6.24373L201.632 1.59553L222.366 1.5752ZM200.736 11.5179L202.018 16.7182L189.447 16.725L191.775 27.8668L182.397 27.8691L177.595 1.61888L198.306 1.59855L199.447 6.24599L187.256 6.25654L188.356 11.5126L200.736 11.5179ZM164.699 19.4057L165.857 27.8758L156.487 27.8781L153.587 1.64299L174.273 1.62265L178.811 27.8736L169.439 27.8758L168.218 19.4178L164.699 19.4057ZM170.773 9.10225L170.247 5.76995L166.15 5.77447L166.527 8.82808L163.312 8.80247L162.898 5.77673L158.935 5.782L159.353 9.11129L162.99 9.10978L163.158 10.3345L161.329 10.336L161.997 15.4686L164.192 15.4663L164.027 13.7211L167.281 13.7083L167.553 15.4633L169.777 15.4618L168.998 10.3534L167.184 10.3428L167.026 9.10301L170.773 9.10225ZM148.449 14.2943L151.541 14.292L152.909 27.8781L143.551 27.8834L142.716 16.8229L139.251 16.7378L139.97 27.8834L130.612 27.8886L129.607 1.66709L150.27 1.64751L151.249 11.377L148.165 11.374L148.449 14.2943ZM142.346 11.6911L141.94 6.29646L138.577 6.29721L138.924 11.6926L142.346 11.6911ZM114.44 6.31906L126.427 6.30926L126.294 1.66935L105.654 1.69119L104.772 27.8947L127.04 27.8886L126.885 22.5008L114.153 22.5053L114.44 6.31906Z" fill="white"/>
<path d="M3.10935 27.9295C2.43822 27.9295 2.28456 28.3099 2.76965 28.7746L9.39207 35.1221C9.87564 35.5854 10.8225 35.9672 11.4943 35.9672H17.3244C17.9962 35.9672 18.1695 35.565 17.7123 35.0724L11.8597 28.8176C11.4024 28.3279 10.4767 27.9257 9.80484 27.9257L3.10935 27.9295ZM25.4871 27.9227C24.8153 27.9227 24.6172 28.3453 25.0488 28.859L30.2197 35.0287C30.6506 35.5454 31.5529 35.9657 32.2248 35.9657H38.3381C39.0099 35.9657 39.2314 35.5251 38.8307 34.985L34.303 28.8997C33.9015 28.3596 33.024 27.9182 32.3521 27.9189L25.4871 27.9227Z" fill="#CECECE"/>
<path d="M17.4312 22.2224C16.7601 22.2224 16.574 22.6329 17.02 23.1376L22.7739 29.6327C23.2198 30.1359 24.0326 30.5261 24.5824 30.4982C25.13 30.4733 25.2633 30.0018 24.8769 29.4512L24.4762 28.8833C24.0891 28.3342 23.9188 27.355 24.0988 26.7064L24.2103 26.3012C24.3911 25.6549 24.1953 24.693 23.7787 24.1665L22.9969 23.179C22.5803 22.6518 21.69 22.2217 21.0189 22.2217H17.4312V22.2224ZM38.3319 27.9839C37.6593 27.9847 37.4371 28.4291 37.8348 28.9699L42.2578 34.983C42.6532 35.5253 43.5292 35.9682 44.2019 35.9682H50.2232C50.8944 35.9682 51.152 35.5034 50.7934 34.934L47.0702 29.0158C46.7124 28.4464 45.871 27.9809 45.1992 27.9824L38.3319 27.9839ZM51.2258 27.9139C50.5546 27.9139 50.291 28.3831 50.642 28.9563L54.2304 34.8308C54.5814 35.404 55.4153 35.8733 56.0879 35.8733H62.0128C62.6855 35.8733 62.9935 35.3799 62.696 34.7766L59.8676 29.0083C59.5708 28.405 58.7799 27.9124 58.1081 27.9124L51.2258 27.9139ZM67.2862 27.9093C66.6151 27.9093 66.2965 28.408 66.5789 29.0173L69.28 34.8587C69.5632 35.4695 70.3428 35.9674 71.0147 35.9674H77.131C77.8028 35.9674 78.1636 35.4507 77.9309 34.821L75.8166 29.052C75.5846 28.4215 74.8472 27.9063 74.1745 27.9063L67.2862 27.9093ZM80.1838 27.9056C79.5127 27.9056 79.1481 28.4238 79.3741 29.0535L81.3671 34.6252C81.5924 35.2594 82.3275 35.7761 82.9994 35.7761H101.092C101.765 35.7761 102.237 35.23 102.143 34.5672L101.37 29.1055C101.277 28.4396 100.648 27.8973 99.9788 27.8973L80.1838 27.9056ZM105.993 27.8958C105.321 27.8958 104.83 28.4419 104.903 29.11L105.511 34.7525C105.584 35.4213 106.191 35.9667 106.863 35.9667H124.863C125.535 35.9667 126.149 35.4198 126.227 34.754L126.896 29.1025C126.975 28.4343 126.488 27.889 125.817 27.8898L105.993 27.8958ZM131.834 27.8883C131.163 27.8883 130.544 28.4351 130.459 29.101L129.755 34.6606C129.67 35.3279 130.15 35.8725 130.822 35.8725H136.846C137.518 35.8725 138.196 35.3377 138.35 34.6847L139.687 29.0723C139.84 28.4185 139.42 27.8845 138.748 27.8852L131.834 27.8883ZM144.772 27.8837C144.1 27.8837 143.424 28.4193 143.269 29.0731L141.96 34.5898C141.805 35.2436 142.227 35.7784 142.899 35.7784H148.922C149.595 35.7784 150.326 35.2601 150.548 34.6259L152.508 29.0324C152.728 28.3989 152.362 27.88 151.69 27.8807L144.772 27.8837ZM157.707 27.8785C157.033 27.8785 156.301 28.3967 156.077 29.0302L154.068 34.7223C153.844 35.3551 154.21 35.8733 154.881 35.8733H160.898C161.571 35.8733 162.353 35.3746 162.639 34.7645L165.34 28.9819C165.624 28.3726 165.307 27.8747 164.636 27.8747L157.707 27.8785ZM170.66 27.8747C169.987 27.8754 169.198 28.3688 168.903 28.9729L166.079 34.7743C165.785 35.3792 166.095 35.8725 166.766 35.8725H172.975C173.648 35.8725 174.471 35.3972 174.807 34.8157L178.2 28.9315C178.536 28.3507 178.262 27.8747 177.588 27.8747H170.66ZM183.619 27.8694C182.948 27.8694 182.111 28.3394 181.763 28.9134L178.161 34.8293C177.811 35.4033 178.075 35.8733 178.745 35.8733H184.859C185.532 35.8733 186.4 35.4251 186.789 34.8783L191.069 28.8637C191.457 28.3161 191.228 27.8687 190.554 27.8687L183.619 27.8694ZM215.972 27.8596C215.3 27.8596 214.387 28.2709 213.943 28.7756L208.569 34.8617C208.123 35.3663 208.309 35.7776 208.982 35.7776H214.809C215.483 35.7776 216.425 35.3927 216.906 34.9257L223.274 28.7085C223.754 28.24 223.598 27.8566 222.925 27.8574L215.972 27.8596Z" fill="#CECECE"/>
<path d="M8.73522 6.13521C8.67271 6.30544 9.17059 6.44629 9.84172 6.4478L16.245 6.47416C16.9168 6.47717 17.4727 6.3318 17.4833 6.15328C17.4923 5.97326 16.95 5.82563 16.2781 5.82563H10.07C9.39732 5.82563 8.79699 5.96498 8.73522 6.13521ZM8.29082 19.4418C8.49946 18.8038 8.12209 18.2811 7.45096 18.2811H5.8865C5.21461 18.2811 4.66626 18.4099 4.66626 18.5658C4.66626 18.7225 5.21537 18.852 5.8865 18.852H6.66082C7.33195 18.852 7.71083 19.3733 7.50067 20.012L6.07707 24.3454C5.86842 24.9856 6.24654 25.5068 6.91843 25.5068H11.7158C12.3884 25.5068 12.9375 25.378 12.9375 25.2214C12.9375 25.0647 12.3884 24.9367 11.7158 24.9367H7.70706C7.03442 24.9367 6.6563 24.4139 6.86721 23.7752L6.98094 23.434C7.19034 22.7952 7.91194 22.2732 8.58307 22.2732H12.286C12.9586 22.2732 13.5085 22.1452 13.5085 21.9893C13.5085 21.8311 12.9586 21.7038 12.286 21.7038H8.76987C8.09874 21.7038 7.72062 21.1833 7.93002 20.543L8.29082 19.4418ZM33.8254 7.25677C33.9166 6.59242 33.4398 6.04708 32.7694 6.04708L30.9134 6.04934C30.2415 6.05009 29.6442 6.17889 29.584 6.33481C29.5237 6.48847 30.0261 6.61728 30.698 6.61728H32.1178C32.7897 6.61728 33.2658 7.16186 33.1746 7.82697L32.914 9.74922C32.8236 10.4151 32.1999 10.9589 31.5296 10.9589H25.6626C24.9907 10.9589 24.4416 11.0877 24.4416 11.2436C24.4416 11.4003 24.9907 11.5291 25.6626 11.5291H37.1954C37.8673 11.5291 38.4164 11.4003 38.4164 11.2436C38.4164 11.0877 37.8673 10.9589 37.1954 10.9589H34.5448C33.8736 10.9589 33.3961 10.4143 33.488 9.74922L33.8254 7.25677ZM41.8835 24.722C42.004 24.0606 41.9264 23.8023 41.711 24.1458C41.4948 24.4877 41.2176 25.3088 41.0934 25.9708L40.9118 26.9395C40.7875 27.5986 40.9947 28.5944 41.3721 29.1517L41.6794 29.6037C42.0575 30.1596 42.6601 30.8315 43.0194 31.0981C43.3779 31.3647 43.3666 31.126 42.993 30.5678L41.9626 29.0267C41.589 28.4678 41.3818 27.4713 41.5031 26.8099L41.8835 24.722ZM51.0631 7.06168C51.0631 6.90501 50.5148 6.78675 49.8437 6.79956L47.4363 6.84701C46.7645 6.86132 46.4933 6.97807 46.833 7.10838C47.1727 7.23945 48.0005 7.34716 48.6716 7.34716H49.8429C50.5148 7.34716 51.0631 7.21836 51.0631 7.06168ZM54.6018 26.1064C54.7487 25.4504 54.6749 25.2041 54.4406 25.5573C54.2079 25.9128 53.9277 26.5855 53.8177 27.0525C53.7077 27.521 53.7959 28.3714 54.0143 28.9416C54.232 29.5133 54.6086 30.2364 54.8504 30.5482C55.0937 30.8593 55.1201 30.5942 54.9084 29.9554L54.5981 29.0244C54.3864 28.3857 54.3314 27.3267 54.476 26.6721L54.6018 26.1064ZM52.3 19.4848C51.6281 19.4509 51.0729 19.5503 51.0631 19.7077C51.0564 19.8644 51.5995 20.0195 52.2706 20.0542L59.0971 20.3999C59.7668 20.4331 60.4914 20.7329 60.7053 21.0658C60.9192 21.3957 61.2017 21.5991 61.3327 21.5147C61.4653 21.4304 61.3636 21.0319 61.1053 20.6327C60.8484 20.2335 60.0861 19.8779 59.4188 19.844L52.3 19.4848ZM59.5265 6.15328C59.7871 6.33481 60.5501 6.4832 61.222 6.4832H61.741C62.4121 6.4832 62.9627 6.35515 62.9627 6.19697C62.9627 6.04181 62.4129 5.89944 61.741 5.88438L60.2714 5.85274C59.6003 5.83617 59.2651 5.97251 59.5265 6.15328ZM67.6765 19.6565C67.0061 19.6851 66.4607 19.8373 66.4675 19.9932C66.4735 20.1499 67.0287 20.2546 67.6983 20.2259L71.6641 20.058C72.3352 20.0293 72.8022 20.5491 72.7013 21.2142L71.872 26.697C71.7695 27.3598 71.8456 28.4301 72.0407 29.0734L72.2132 29.6481C72.4083 30.2914 72.7947 31.141 73.0764 31.5372C73.3581 31.9327 73.4289 31.7308 73.2368 31.0868L72.6237 29.0327C72.4324 28.3887 72.357 27.3184 72.4565 26.6555L73.3679 20.6138C73.4681 19.9495 73.0018 19.429 72.3299 19.4584L67.6765 19.6565ZM69.0353 6.01544C69.0082 6.16986 69.5279 6.38829 70.1915 6.50052L76.9503 7.29443C77.6161 7.37729 78.1615 7.31552 78.1615 7.15885C78.1615 7.00067 77.6161 6.80332 76.9503 6.72047L70.2879 5.93861C69.6243 5.82563 69.0601 5.86103 69.0353 6.01544ZM83.7422 23.2102C83.7484 23.0519 83.7224 22.8939 83.6659 22.7458C83.6094 22.5977 83.5235 22.4626 83.4133 22.3487C83.3031 22.2347 83.171 22.1442 83.0249 22.0827C82.8789 22.0212 82.7218 21.9899 82.5634 21.9908H80.1462C79.4751 21.9908 78.9245 22.1203 78.9245 22.2755C78.9245 22.4322 79.4751 22.5617 80.1462 22.5617H81.9721C82.1305 22.5611 82.2874 22.5925 82.4334 22.6541C82.5794 22.7157 82.7114 22.8062 82.8215 22.9201C82.9316 23.034 83.0176 23.169 83.0742 23.317C83.1308 23.465 83.1569 23.6229 83.1509 23.7812L83.053 26.6013C83.0296 27.2732 83.1471 28.3533 83.3136 29.0034L83.7648 30.7667C83.9327 31.4175 84.2446 32.2679 84.4623 32.6558C84.6777 33.046 84.7342 32.8268 84.585 32.1715L83.8544 28.9499C83.7068 28.2953 83.6036 27.2099 83.6262 26.5388L83.7422 23.2102ZM80.3511 9.34473C80.3511 9.5014 80.901 9.63096 81.5728 9.63096H83.8823C84.5534 9.63096 85.3812 9.48031 85.7209 9.29878C86.0614 9.115 85.7887 8.97414 85.1176 8.98393L81.5721 9.04118C80.901 9.05097 80.3511 9.18806 80.3511 9.34473ZM96.0681 12.2756C96.0522 11.6029 95.9099 11.0538 95.7502 11.0538C95.5958 11.0538 95.467 11.6029 95.467 12.2756V15.0625C95.467 15.7344 95.6154 15.9611 95.7992 15.571C95.9814 15.1778 96.117 14.3085 96.1012 13.6359L96.0681 12.2756ZM98.8482 22.6702C98.8336 22.9967 98.6943 23.3052 98.459 23.532C98.2237 23.7589 97.9104 23.8869 97.5836 23.8897H95.7359C95.0648 23.8897 94.5141 24.4395 94.5141 25.1122V26.9485C94.5141 27.6212 94.6414 28.1695 94.8004 28.1695C94.9578 28.1695 95.0859 27.6204 95.0859 26.9485V25.6824C95.0859 25.0112 95.635 24.4629 96.3083 24.4629H98.1372C98.8083 24.4629 99.3763 23.9138 99.3989 23.2411L99.4184 22.6498C99.4418 21.978 99.3318 21.4251 99.1752 21.4183C99.0185 21.413 98.8701 21.9576 98.8475 22.628L98.8482 22.6702ZM122.234 23.9416C122.103 24.1917 122.055 24.9427 122.125 25.6108L122.247 26.7617C122.317 27.4299 122.298 28.5205 122.207 29.1856L121.403 35.0051C121.312 35.6695 121.393 36.2058 121.585 36.1975C121.778 36.1884 122.003 35.6356 122.086 34.969L122.801 29.1969C122.883 28.5296 122.892 27.4374 122.82 26.77L122.601 24.7016C122.529 24.0343 122.364 23.6916 122.234 23.9416ZM105.07 32.9239C105.07 33.0806 105.619 33.2094 106.291 33.2094H106.607C107.278 33.2094 107.828 33.0814 107.828 32.9239C107.828 32.768 107.278 32.6392 106.607 32.6392H106.291C105.619 32.6392 105.07 32.768 105.07 32.9239ZM107.258 10.104C107.572 10.2607 108.364 10.5107 109.019 10.6584L113.725 11.4982C114.342 11.7649 114.897 11.865 114.959 11.7204C115.022 11.5773 114.552 11.2858 113.914 11.0749L107.887 10.0475C107.227 9.92095 106.944 9.94732 107.258 10.104ZM107.161 15.3811C107.422 15.1974 107.087 15.0678 106.416 15.0927L106.196 15.1002C105.523 15.1243 104.975 15.2727 104.975 15.4293C104.975 15.586 105.36 15.7141 105.829 15.7141C106.301 15.7141 106.899 15.5642 107.161 15.3811ZM133.743 10.3887C133.782 10.7548 134.365 11.0546 135.039 11.0546H135.571C136.242 11.0546 136.876 11.0839 136.975 11.1178C137.078 11.1532 137.456 11.4221 137.589 11.3416C137.723 11.2617 137.625 11.0372 137.372 10.8444C137.119 10.6516 136.333 10.4896 135.662 10.4874H135.549C134.876 10.4866 134.266 9.93828 134.191 9.27242L133.442 2.54003C133.366 1.8704 133.177 1.33937 133.022 1.3582C132.868 1.37553 132.799 1.93593 132.874 2.6033L133.468 7.94071C133.544 8.60807 133.051 9.15341 132.381 9.15341H130.443C129.771 9.15341 129.223 9.28146 129.223 9.43663C129.223 9.5933 129.772 9.72135 130.443 9.72135H132.445C133.117 9.72135 133.7 10.0219 133.743 10.3887ZM132.925 23.7857C132.97 24.4553 132.735 25.4797 132.399 26.062L131.889 26.6367C131.733 27.2905 131.73 27.8509 131.883 27.8841C132.037 27.9164 132.331 27.4208 132.534 26.7806C132.534 26.7806 132.613 26.5019 132.86 26.1501C133.105 25.7961 133.379 25.5068 133.462 25.5068C133.545 25.5068 133.578 24.9577 133.532 24.2889L133.321 21.2104C133.308 21.0541 133.328 20.8968 133.379 20.7486C133.431 20.6005 133.513 20.4647 133.62 20.3501C133.727 20.2355 133.857 20.1445 134.001 20.0831C134.146 20.0216 134.301 19.991 134.458 19.9932H139.033C139.705 19.9932 140.253 19.8644 140.253 19.7077C140.253 19.5518 139.704 19.4215 139.033 19.4215H133.847C133.176 19.4215 132.662 19.9706 132.708 20.6402L132.925 23.7857ZM142.533 21.4198C142.533 21.5765 143.082 21.7053 143.754 21.7053H146.825C147.498 21.7053 148.282 21.5765 148.57 21.4198C148.861 21.2624 148.547 21.1328 147.875 21.1328L143.752 21.1343C143.083 21.1343 142.533 21.2631 142.533 21.4198ZM145.171 13.3677C145.342 13.5086 146.03 13.6246 146.7 13.6246H147.588C148.26 13.6246 148.809 13.4958 148.809 13.3399C148.809 13.1817 148.26 13.0612 147.588 13.071L146.084 13.0928C145.41 13.1026 145.001 13.2261 145.171 13.3677ZM129.507 33.3992C129.494 33.5551 130.034 33.7231 130.703 33.7706L137.493 34.2594C138.161 34.3084 138.718 34.2195 138.732 34.0628C138.742 33.9069 138.204 33.7404 137.533 33.6915L130.748 33.2041C130.078 33.1559 129.519 33.2433 129.507 33.3992ZM169.139 21.2157C168.467 21.224 167.92 21.3573 167.92 21.514C167.921 21.6706 168.472 21.7934 169.143 21.7874L177.444 22.7093C178.112 22.7741 178.705 22.7071 178.758 22.5602C178.814 22.4148 178.311 22.2378 177.644 22.17L169.139 21.2157ZM195.02 10.6734C194.873 10.7254 194.782 11.3167 194.814 11.9886L195.572 15.8135C195.285 16.4206 195.163 16.9742 195.305 17.045C195.447 17.1151 195.801 16.6775 196.092 16.0726L195.352 11.798C195.316 11.1269 195.169 10.6215 195.02 10.6734ZM190.615 3.54333C190.014 3.54333 189.367 3.03113 189.174 2.40821C188.983 1.78303 188.705 1.31 188.554 1.3567C188.405 1.40264 188.444 1.96606 188.64 2.60782L188.745 2.94753C188.941 3.59003 189.595 4.11504 190.2 4.11504C190.804 4.11504 191.477 4.63326 191.693 5.2705L191.977 6.09303C192.195 6.72875 192.495 7.20706 192.641 7.15584C192.789 7.10612 192.732 6.54421 192.514 5.90924L192.099 4.69879C191.882 4.06382 191.213 3.54333 190.615 3.54333ZM213.166 20.0881C212.495 20.0881 211.946 20.2161 211.946 20.3736C211.946 20.5317 212.495 20.6606 213.166 20.6606H220.993C221.667 20.6606 222.214 20.5317 222.214 20.3736C222.214 20.2161 221.665 20.0881 220.993 20.0881H213.166ZM219.076 6.6813C219.225 6.63987 219.208 6.0757 219.029 5.42867L218.245 2.55509C218.071 1.90656 217.8 1.41018 217.647 1.45236C217.499 1.49303 217.518 2.0572 217.695 2.70498L218.479 5.57706C218.657 6.22484 218.926 6.72197 219.076 6.6813Z" fill="#C7C7C7"/>
<path d="M29.3378 6.51317H31.8958C32.5669 6.51317 32.5767 6.40621 31.9176 6.27892L31.0356 6.10567C30.3758 5.97687 29.8711 6.09588 29.9103 6.37232L29.3378 6.51317ZM15.0271 31.8278C14.7673 31.5401 14.0073 31.3714 13.3421 31.452L11.8666 31.6342C11.2 31.7148 11.2 31.8459 11.8673 31.9257L14.289 32.2105C14.9571 32.288 15.2893 32.1163 15.0271 31.8278ZM39.2255 34.9673C39.044 34.6796 38.3465 34.4897 37.6761 34.5477L34.5012 34.8159C33.8316 34.8716 33.8316 34.9688 34.4997 35.0298L38.3435 35.3778C39.0123 35.4388 39.4108 35.2543 39.2255 34.9673ZM68.5134 33.7787C68.4351 33.5181 68.9187 33.32 69.5913 33.3388L70.3822 33.3629C71.0533 33.3802 71.0759 33.5512 70.4297 33.7388L69.8263 33.912C69.1823 34.0996 68.591 34.0393 68.5134 33.7787ZM102.027 31.925C101.976 31.5326 101.391 31.2885 100.725 31.3834L98.4808 31.7035C97.8187 31.7984 97.8187 31.9611 98.4801 32.0658L100.914 32.4485C101.578 32.5532 102.078 32.3174 102.027 31.925ZM104.831 33.2831C104.797 32.8914 105.317 32.6353 105.983 32.7106L106.053 32.7189C106.722 32.7957 106.773 33.0955 106.167 33.387L105.994 33.4691C105.388 33.7584 104.864 33.6747 104.831 33.2831ZM83.6308 26.7428C83.5517 26.1673 83.4018 26.1243 83.2971 26.6478C83.1924 27.1706 83.264 28.1249 83.4568 28.7674L83.6105 29.2796C83.8041 29.9229 83.9246 29.9003 83.8771 29.2322L83.8613 29.007C83.8038 28.2504 83.727 27.4954 83.6308 26.7428ZM94.7538 27.1698C94.6227 26.9348 94.5346 27.2903 94.5587 27.9615L94.5685 28.2801C94.5926 28.9512 94.6966 29.0725 94.8035 28.5498C94.9067 28.0263 94.8856 27.4056 94.7538 27.1698ZM72.2209 26.9318C72.1937 26.3556 72.0883 26.3556 71.9851 26.9318C71.8804 27.508 71.9685 28.5 72.1787 29.1373L72.3564 29.6713C72.5681 30.3086 72.6525 30.2867 72.5417 29.6254L72.4694 29.184C72.349 28.4379 72.266 27.6862 72.2209 26.9318ZM54.1056 27.3604C54.0009 27.1246 53.8277 27.1676 53.726 27.4553C53.6213 27.743 53.7297 28.2763 53.9647 28.6424C54.1998 29.0077 54.373 28.967 54.3451 28.5475C54.318 28.1302 54.2111 27.5962 54.1056 27.3604ZM41.4596 26.9574C41.33 26.3804 41.095 26.4445 40.9383 27.0983V27.1005C40.7809 27.7528 41.0385 28.6733 41.5078 29.1441C41.9778 29.6156 42.2121 29.5516 42.0305 29.0024C41.8123 28.3289 41.6218 27.6466 41.4596 26.9574ZM18.6893 26.1251C18.5063 25.8901 18.9048 25.7455 19.5744 25.8035L21.511 25.9714C22.1806 26.0294 22.1821 26.1462 21.517 26.2328L20.2335 26.3985C19.5684 26.4836 18.8731 26.3609 18.6893 26.1251ZM122.394 26.5243C122.49 25.86 122.68 25.8524 122.824 26.5085L122.881 26.7834C123.023 27.4402 122.997 28.5091 122.825 29.1584L122.593 30.0306C122.42 30.6776 122.264 30.6603 122.245 29.9884L122.221 29.199C122.202 28.5272 122.263 27.4342 122.359 26.7684L122.394 26.5243ZM114.769 11.8626C114.769 12.1504 114.314 12.0743 113.758 11.6992L113.399 11.4559C112.843 11.0778 112.923 10.897 113.576 11.0537L113.579 11.0544C114.235 11.2126 114.769 11.5741 114.769 11.8626ZM151.899 31.2102C151.977 30.9488 151.492 30.7515 150.819 30.7695L149.934 30.7951C149.264 30.8147 149.244 30.9782 149.889 31.1612L150.58 31.3548C151.229 31.5356 151.821 31.47 151.899 31.2102ZM147.143 27.1706C146.96 26.7782 146.83 27.0071 146.856 27.679L146.86 27.8041C146.887 28.4744 147.034 28.7667 147.19 28.4533C147.349 28.1392 147.328 27.563 147.143 27.1706ZM164.023 32.3995C164.128 32.1118 163.664 31.9212 162.997 31.9747L160.677 32.1608C160.006 32.2135 160.002 32.3393 160.666 32.441L162.626 32.7392C163.288 32.8402 163.917 32.6873 164.023 32.3995ZM161.646 27.3129C161.54 26.9981 161.392 26.977 161.314 27.2647C161.236 27.5532 161.258 28.195 161.361 28.6929C161.465 29.1893 161.615 29.2111 161.691 28.7396C161.771 28.2688 161.751 27.627 161.646 27.3129ZM195.352 17.1865C195.117 17.1081 195.139 16.5515 195.4 15.9504C195.661 15.3486 195.853 15.4043 195.826 16.0762L195.825 16.1094C195.801 16.7805 195.587 17.2663 195.352 17.1865ZM179.377 31.7337C179.613 31.4467 180.349 31.2923 181.013 31.3917L184.302 31.8851C184.967 31.9845 184.962 32.0824 184.291 32.1005L180.17 32.221C179.499 32.2421 179.144 32.0214 179.377 31.7337ZM210.563 31.7337C210.852 31.3412 211.627 31.1236 212.288 31.2524L215.31 31.8354C215.969 31.9627 215.96 32.0975 215.289 32.1382L211.262 32.3739C210.588 32.4161 210.276 32.1269 210.563 31.7337ZM211.802 20.3237C211.671 19.8793 212.106 19.5968 212.77 19.6955L215.489 20.097C216.152 20.1956 216.155 20.3757 215.494 20.4969L213.243 20.9105C212.582 21.0317 211.935 20.7681 211.802 20.3237ZM208.614 7.10823C208.406 6.92444 208.213 6.22544 208.191 5.55506L208.185 5.42776C208.163 4.75663 208.282 4.74006 208.454 5.3886L208.683 6.26009C208.854 6.90937 208.823 7.29202 208.614 7.10823ZM178.381 23.0353L176.663 22.3469C176.039 22.0976 176.074 21.9447 176.743 22.0072L178.569 22.1782M113.106 28.5475C113.234 28.1829 113.234 27.6052 113.106 27.264C112.976 26.925 112.319 26.6486 111.648 26.6486H110.95C110.278 26.6486 109.537 26.9687 109.302 27.3619C109.066 27.7543 109.403 28.2259 110.049 28.4097L111.696 28.8797C112.343 29.0627 112.976 28.9128 113.106 28.5475Z" fill="#C7C7C7"/>
<path d="M111.964 27.5975C111.518 27.1283 111.54 26.7419 112.012 26.7419C112.482 26.7419 113.06 26.9776 113.295 27.2654C113.529 27.5539 113.431 28.2551 113.074 28.8246L112.943 29.0362C112.585 29.6042 112.403 29.7074 112.532 29.2622C112.666 28.8163 112.409 28.0691 111.964 27.5975ZM68.9388 6.20498C68.9915 5.83966 69.5663 5.67245 70.217 5.83665L70.5101 5.90971C71.1624 6.07392 71.1593 6.33152 70.5055 6.48443L70.0333 6.5944C69.3795 6.74731 68.8861 6.57256 68.9388 6.20498ZM38.1798 11.3865C38.048 11.6215 37.4092 11.6848 36.7547 11.5281L36.3713 11.4354C35.7197 11.2788 35.7318 11.1176 36.4044 11.0769L37.1961 11.0302C37.8672 10.991 38.3109 11.1507 38.1798 11.3865ZM13.4105 21.8933C13.5167 21.5785 13.061 21.4271 12.4027 21.5566L11.3805 21.7555C10.7214 21.8843 10.7245 22.0748 11.3873 22.178L12.014 22.2767C12.6761 22.3799 13.3058 22.2082 13.4105 21.8933Z" fill="#C7C7C7"/>
<path d="M15.3123 31.9252C15.1037 31.6902 15.0864 30.9686 15.2769 30.3261L15.5391 29.435C15.7281 28.7902 15.8562 28.8121 15.8253 29.4825L15.7485 31.1313C15.7176 31.8047 15.5217 32.1587 15.3123 31.9252ZM39.0836 35.0617C38.8742 34.9306 38.8742 34.3544 39.0836 33.7782C39.293 33.2027 39.464 33.2825 39.464 33.9544V34.0779C39.464 34.7498 39.293 35.1927 39.0836 35.0617ZM60.5252 20.7533C60.4995 20.3345 60.6781 20.5024 60.9244 21.1291L61.075 21.5178C61.3221 22.143 61.3093 22.3976 61.0471 22.0842C60.7858 21.7701 60.5508 21.1713 60.5252 20.7533ZM179.665 32.115C179.899 31.9312 179.94 31.2533 179.756 30.6078L179.475 29.6271C179.291 28.9816 179.153 29.0027 179.171 29.6738L179.209 31.227C179.223 31.8981 179.429 32.2981 179.665 32.115ZM211.041 31.9237C211.381 31.7399 211.43 31.0914 211.148 30.4828L209.888 27.7561C209.607 27.1444 209.478 27.1851 209.6 27.8472L210.2 31.056C210.323 31.7173 210.702 32.1075 211.041 31.9237ZM212.372 20.2772C212.241 20.0151 211.891 20.2945 211.595 20.8971L210.296 23.5538C209.998 24.1571 210.081 24.2068 210.478 23.666L211.889 21.7362C212.286 21.1962 212.503 20.5401 212.372 20.2772Z" fill="#CECECE"/>
<path d="M191.975 7.25119L192.028 5.7161C192.049 5.04347 192.207 5.0269 192.376 5.67618L192.83 7.44101" fill="#C7C7C7"/>
<path d="M10.7978 32.5898C10.1967 32.4068 10.2397 32.2998 10.8927 32.354C11.6076 32.4123 12.3208 32.4911 13.0311 32.5905C13.5531 32.6689 13.5109 32.7766 12.9362 32.8271C12.3608 32.8798 11.3989 32.7728 10.7978 32.5898ZM40.8977 29.2228C40.424 28.7483 40.3547 28.8063 40.7441 29.3524L41.2262 30.0273C41.6163 30.5741 42.2362 31.2129 42.6031 31.4494C42.9684 31.6844 42.948 31.4931 42.5564 31.0216C42.0517 30.4294 41.5253 29.856 40.9783 29.3027L40.8977 29.2228ZM53.1559 27.8843C52.9977 27.8843 53.0843 28.3325 53.3457 28.8831C53.607 29.4322 53.7351 29.4322 53.6311 28.8831C53.5264 28.3318 53.3125 27.8843 53.1559 27.8843ZM70.6542 33.9697C70.1307 33.917 70.2444 33.7769 70.905 33.6549L71.6349 33.523C72.2955 33.4025 72.5591 33.4763 72.2187 33.6857C71.882 33.8944 71.1762 34.0217 70.6542 33.9697ZM82.8694 28.8824C82.6336 28.5427 82.5478 28.7558 82.6781 29.3569C82.8091 29.958 83.1518 30.8792 83.4396 31.4012C83.7251 31.9254 83.8373 31.8177 83.6851 31.1647L83.5752 30.6916C83.4215 30.0356 83.1051 29.2213 82.8694 28.8824ZM123.281 29.9271C123.202 29.5347 123.008 29.5987 122.852 30.0687C122.696 30.5395 122.567 31.4366 122.567 32.0663C122.567 32.693 122.741 32.6855 122.955 32.0497L123.038 31.7989C123.249 31.1624 123.359 30.3195 123.281 29.9271ZM109.816 27.3089C109.683 26.9082 109.379 26.9767 109.141 27.4603C108.902 27.9439 109.203 28.5796 109.806 28.8741L109.836 28.8869C110.437 29.1799 110.736 29.1091 110.495 28.728C110.256 28.3491 109.948 27.7104 109.816 27.3089ZM132.406 34.1588C131.806 34.0029 131.863 33.8741 132.535 33.8741H132.755C133.426 33.8741 134.467 34.045 135.071 34.2544C135.671 34.4638 135.617 34.5964 134.944 34.5482L134.72 34.5324C134.051 34.4834 133.01 34.3162 132.406 34.1588ZM147.669 28.8824C147.619 28.6466 147.424 28.8613 147.241 29.3569C147.055 29.8533 147.099 30.0469 147.336 29.7855C147.57 29.5234 147.722 29.1159 147.669 28.8824ZM162.349 28.3634C162.296 28.1299 162.103 28.3431 161.921 28.8402C161.737 29.3358 161.781 29.5309 162.017 29.2673C162.251 29.0052 162.402 28.5992 162.349 28.3634ZM159.993 32.7736C159.332 32.647 159.341 32.4896 160.009 32.4241L160.526 32.3744C161.194 32.3103 162.019 32.4278 162.361 32.6388C162.701 32.8474 162.594 33.0191 162.123 33.0191C161.652 33.0191 160.728 32.9152 160.067 32.7879L159.993 32.7736ZM181.568 32.7337C180.965 32.7849 180.965 32.6787 181.568 32.4956C182.168 32.3118 183.209 32.2087 183.876 32.2659L184.771 32.3442C185.439 32.4007 185.439 32.4806 184.768 32.5182L183.878 32.5679C183.209 32.6079 182.167 32.6817 181.568 32.7337Z" fill="#DCD8DB"/>
<path d="M195.493 17.3776C195.179 17.5094 194.711 18.1225 194.454 18.7432L194.441 18.7688C194.183 19.3895 194.303 19.4595 194.708 18.924L195.322 18.1128C195.731 17.5765 195.807 17.2458 195.493 17.3776Z" fill="#CECECE"/>
<path d="M219.124 6.9672C218.835 6.9672 218.547 6.4196 218.481 5.75149L218.432 5.23552C218.367 4.56514 218.542 4.51995 218.818 5.13158L219.146 5.85393C219.421 6.4663 219.412 6.9672 219.124 6.9672ZM129.27 9.67583C129.245 9.33612 129.773 9.07701 130.444 9.09961L130.852 9.11241C131.524 9.13576 131.565 9.36324 130.946 9.62009L130.445 9.82497C129.825 10.0826 129.295 10.0148 129.27 9.67583ZM95.8481 10.9119C95.5845 10.7808 95.4406 11.2185 95.528 11.8843L95.595 12.4123C95.6824 13.0782 95.8752 13.088 96.0282 12.4334L96.0477 12.3408C96.2006 11.6862 96.1095 11.0437 95.8481 10.9119ZM65.9418 20.1834C65.8634 19.9221 66.3493 19.7089 67.0211 19.7089H69.6198C70.2909 19.7089 70.3015 19.8166 69.6432 19.9469L67.2833 20.4177C66.625 20.5495 66.0193 20.4448 65.9418 20.1834ZM12.8645 25.4116C12.9044 25.2158 12.3869 25.0538 11.7143 25.0538H11.0906C10.4172 25.0538 10.4021 25.1849 11.0544 25.3446L11.6066 25.4794C12.2581 25.6398 12.8238 25.6075 12.8645 25.4116Z" fill="#C7C7C7"/>
<path d="M3.41072 27.5847C2.73883 27.593 2.29669 27.7052 2.42926 27.8355C2.56107 27.9673 3.21789 28.0735 3.88902 28.0735H8.86488C9.5345 28.0735 10.1921 27.9455 10.3231 27.7881C10.4542 27.6306 10.0098 27.5094 9.33866 27.5169L3.41072 27.5847ZM25.9482 27.5847C25.2748 27.593 24.8319 27.7052 24.9645 27.8355C25.0948 27.9673 25.7501 28.0735 26.4212 28.0735H31.3971C32.0682 28.0735 32.725 27.9455 32.8569 27.7881C32.9879 27.6306 32.5435 27.5094 31.8731 27.5169L25.9482 27.5847ZM38.6183 27.486C37.9464 27.5064 37.4335 27.6329 37.4757 27.764C37.5209 27.8958 38.1061 28.002 38.778 28.002H38.8639C39.5358 28.002 40.1218 27.8732 40.1677 27.7165C40.2114 27.5583 39.6992 27.4491 39.0273 27.4702L38.6183 27.486ZM16.0108 16.4323C15.3397 16.4549 14.8267 16.5807 14.8712 16.711C14.9179 16.8421 15.5031 16.9498 16.1742 16.9498H16.2586C16.9297 16.9498 17.515 16.821 17.5617 16.6643C17.6061 16.5061 17.0932 16.3962 16.4221 16.418L16.0108 16.4323ZM25.3524 16.4323C24.682 16.4549 24.1698 16.5807 24.2135 16.711C24.2602 16.8421 24.8447 16.9498 25.5151 16.9498H25.6002C26.2721 16.9498 26.8574 16.821 26.9025 16.6643C26.9485 16.5061 26.434 16.3962 25.7621 16.418L25.3524 16.4323ZM6.66694 17.9252C5.99657 17.9493 5.48135 18.0759 5.52128 18.2084C5.55969 18.3388 6.10654 18.445 6.73172 18.445C7.3569 18.445 7.90149 18.3162 7.94066 18.1602C7.98134 18.0036 7.46537 17.8951 6.79499 17.9207L6.66694 17.9252ZM17.8653 21.7276C17.1926 21.7404 16.7121 21.8564 16.7942 21.9882C16.8785 22.12 17.4962 22.2247 18.1666 22.2247H20.3991C21.0718 22.2247 21.6887 22.0974 21.7708 21.9415C21.8544 21.7848 21.3723 21.6665 20.7012 21.6778L17.8653 21.7276ZM12.7305 5.46977C12.0578 5.48182 11.5773 5.59858 11.6609 5.72888C11.743 5.85919 12.3606 5.96615 13.031 5.96615H15.2666C15.9392 5.96615 16.5561 5.8381 16.6382 5.68143C16.7196 5.52401 16.2375 5.40499 15.5664 5.41629L12.7305 5.46977ZM51.595 27.486C50.9246 27.5064 50.4109 27.6329 50.4561 27.764C50.5021 27.8958 51.0866 28.002 51.7577 28.002H51.8413C52.5125 28.002 53.1 27.8732 53.1452 27.7165C53.1904 27.5583 52.6774 27.4491 52.004 27.4702L51.595 27.486ZM73.7717 27.4823C73.0998 27.5056 72.5839 27.6329 72.6253 27.7647C72.6652 27.8965 73.2105 28.0035 73.8357 28.0035C74.4632 28.0035 75.0063 27.8747 75.0454 27.7165C75.0861 27.5598 74.5671 27.4521 73.8998 27.4762L73.7717 27.4823ZM55.7318 27.5026C55.0606 27.5184 54.5688 27.6344 54.6419 27.7655C54.7134 27.8973 55.322 28.002 55.9932 28.002H57.6623C58.3342 28.002 58.9421 27.8732 59.0144 27.7173C59.0859 27.5606 58.5956 27.4416 57.9237 27.4566L55.7318 27.5026ZM67.498 27.5041C66.8254 27.5177 66.3433 27.6336 66.4239 27.7655C66.5053 27.8973 67.1207 28.0027 67.7918 28.0027H69.8956C70.5682 28.0027 71.1828 27.8739 71.2649 27.7173C71.3448 27.5606 70.8612 27.4408 70.1901 27.4551L67.498 27.5041ZM80.4785 27.4966C79.8074 27.5131 79.3057 27.6344 79.363 27.7647C79.4225 27.8965 80.0198 28.0012 80.6909 28.0012H81.6001C82.2712 28.0012 82.8693 27.8724 82.9295 27.7158C82.989 27.5591 82.4881 27.4438 81.8155 27.4612L80.4785 27.4966ZM106.219 27.4966C105.548 27.5131 105.047 27.6344 105.107 27.7647C105.167 27.8965 105.765 28.0012 106.437 28.0012H107.343C108.013 28.0012 108.612 27.8724 108.673 27.7158C108.733 27.5591 108.232 27.4438 107.561 27.4612L106.219 27.4966ZM124.546 27.492C123.875 27.5101 123.368 27.6336 123.421 27.764C123.475 27.8958 124.065 28.002 124.739 28.002H125.266C125.938 28.002 126.531 27.8732 126.584 27.7165C126.638 27.5591 126.132 27.4461 125.46 27.4657L124.546 27.492ZM133.677 27.5109C133.005 27.5207 132.547 27.6336 132.659 27.7647C132.772 27.8965 133.414 28.0012 134.085 28.0012H138.074C138.745 28.0012 139.387 27.8724 139.501 27.7158C139.616 27.5591 139.158 27.4371 138.486 27.4461L133.677 27.5109ZM144.943 27.4883C144.271 27.5086 143.761 27.6336 143.808 27.7655C143.855 27.8958 144.443 28.0027 145.111 28.0027H145.302C145.975 28.0027 146.562 27.8739 146.608 27.7173C146.655 27.5598 146.145 27.4491 145.471 27.4694L144.943 27.4883ZM149.01 27.5026C148.335 27.5184 147.848 27.6344 147.92 27.7655C147.992 27.8973 148.602 28.002 149.274 28.002H150.984C151.655 28.002 152.265 27.8732 152.339 27.7173C152.41 27.5606 151.921 27.4416 151.249 27.4566L149.01 27.5026ZM157.993 27.4981C157.32 27.5139 156.823 27.6336 156.885 27.7647C156.948 27.8965 157.549 28.0027 158.22 28.0027H159.295C159.966 28.0027 160.567 27.8739 160.628 27.7173C160.69 27.5606 160.192 27.4438 159.52 27.4604L157.993 27.4981ZM163.342 27.492C162.67 27.5116 162.163 27.6344 162.213 27.7655C162.264 27.8965 162.856 28.0027 163.529 28.0027H163.974C164.645 28.0027 165.236 27.8739 165.285 27.7173C165.335 27.5598 164.829 27.4476 164.157 27.4672L163.342 27.492ZM170.903 27.5139C170.231 27.5214 169.795 27.6336 169.935 27.7647C170.075 27.8965 170.738 28.0027 171.409 28.0027H176.913C177.585 28.0027 178.248 27.8739 178.388 27.7165C178.528 27.5598 178.092 27.4371 177.422 27.4446L170.903 27.5139ZM183.737 27.5139C183.064 27.5214 182.629 27.6336 182.769 27.7647C182.908 27.8965 183.572 28.0027 184.245 28.0027H189.747C190.42 28.0027 191.083 27.8739 191.224 27.7165C191.366 27.5598 190.93 27.4371 190.259 27.4446L183.737 27.5139ZM216.185 27.5139C215.514 27.5214 215.078 27.6336 215.221 27.7647C215.36 27.8965 216.023 28.0027 216.697 28.0027H222.193C222.866 28.0027 223.53 27.8739 223.67 27.7165C223.81 27.5598 223.375 27.4371 222.705 27.4446L216.185 27.5139ZM204.275 5.8946C203.603 5.90815 203.118 6.02415 203.197 6.15597C203.275 6.28703 203.89 6.39248 204.562 6.39248H206.586C207.257 6.39248 207.872 6.26443 207.951 6.10701C208.029 5.95034 207.544 5.83208 206.872 5.84488L204.275 5.8946ZM194.147 5.89836C193.477 5.90966 193.002 6.02415 193.091 6.15597C193.183 6.28703 193.806 6.39248 194.48 6.39248H197.132C197.806 6.39248 198.427 6.26443 198.518 6.10776C198.607 5.95033 198.132 5.83208 197.46 5.84187L194.147 5.89836ZM189.011 5.88857C188.34 5.90439 187.841 6.02566 187.906 6.15521C187.968 6.28628 188.567 6.39248 189.242 6.39248H190.382C191.055 6.39248 191.654 6.26443 191.719 6.10701C191.782 5.94958 191.287 5.83509 190.612 5.85091L189.011 5.88857ZM190.726 16.3804C190.054 16.3924 189.572 16.5092 189.654 16.6402C189.733 16.7713 190.35 16.876 191.02 16.876H193.17C193.841 16.876 194.456 16.7487 194.538 16.5928C194.62 16.4353 194.137 16.3178 193.464 16.3291L190.726 16.3804ZM159.42 5.17827C158.748 5.19409 158.25 5.31385 158.314 5.44492C158.376 5.57447 158.977 5.68143 159.649 5.68143H160.788C161.461 5.68143 162.06 5.55338 162.124 5.39671C162.185 5.24004 161.688 5.12404 161.016 5.14136L159.42 5.17827ZM166.692 5.17827C166.019 5.19409 165.522 5.31385 165.586 5.44492C165.647 5.57447 166.251 5.68143 166.921 5.68143H168.064C168.736 5.68143 169.336 5.55338 169.4 5.39671C169.46 5.24004 168.965 5.12404 168.29 5.14136L166.692 5.17827ZM162.036 9.79408C161.492 9.81819 161.075 9.94774 161.108 10.0788C161.139 10.2106 161.559 10.3183 162.039 10.3183C162.518 10.3183 162.937 10.1888 162.967 10.0321C162.997 9.87694 162.577 9.76923 162.036 9.79408ZM164.626 8.29666C163.954 8.32227 163.438 8.45107 163.475 8.58213C163.513 8.71319 164.038 8.82091 164.642 8.82091C165.245 8.82091 165.769 8.6921 165.807 8.53468C165.845 8.3765 165.326 8.26879 164.655 8.2959L164.626 8.29666ZM132.249 8.58213C131.577 8.60699 131.059 8.73504 131.097 8.86685C131.134 8.99792 131.659 9.10563 132.263 9.10563C132.867 9.10563 133.392 8.97683 133.434 8.82015C133.474 8.66273 132.954 8.55426 132.285 8.57987L132.249 8.58213ZM140.379 16.1484C139.704 16.1694 139.193 16.2937 139.243 16.4255C139.289 16.5559 139.878 16.6636 140.55 16.6636H140.759C141.432 16.6636 142.02 16.5363 142.065 16.3796C142.112 16.2214 141.602 16.1107 140.93 16.1303L140.379 16.1484ZM134.674 18.8736C134.002 18.8894 133.511 19.0054 133.584 19.1357C133.657 19.2675 134.265 19.3729 134.939 19.3729H136.604C137.275 19.3729 137.885 19.2441 137.956 19.0875C138.029 18.9293 137.538 18.8125 136.868 18.8276L134.674 18.8736ZM215.398 19.4437C214.726 19.4596 214.238 19.5756 214.311 19.7074C214.383 19.8377 214.994 19.9439 215.664 19.9439H217.328C218.001 19.9439 218.609 19.8151 218.683 19.6577C218.755 19.501 218.265 19.385 217.596 19.3986L215.398 19.4437ZM81.1218 21.5754C80.4506 21.5935 79.9445 21.717 79.9979 21.8466C80.0529 21.9761 80.6465 22.0823 81.3176 22.0823H81.9714C82.6425 22.0823 83.2383 21.9543 83.2933 21.7976C83.3483 21.6409 82.8452 21.5287 82.1725 21.546L81.1218 21.5754ZM69.7088 19.2923C69.0376 19.3104 68.533 19.434 68.5872 19.5635C68.6414 19.6931 69.2342 19.8 69.9054 19.8H70.5607C71.2333 19.8 71.8284 19.672 71.8834 19.5161C71.9383 19.3586 71.4337 19.2456 70.7618 19.2637L69.7088 19.2923ZM53.4472 19.0777C52.7753 19.0958 52.2714 19.2193 52.3264 19.3496C52.3829 19.4807 52.978 19.5876 53.6491 19.5876H54.3029C54.974 19.5876 55.5691 19.4588 55.6241 19.3006C55.6798 19.144 55.1744 19.0302 54.5025 19.0483L53.4472 19.0777ZM28.8489 10.3793C28.1778 10.3921 27.6882 10.5066 27.762 10.6377C27.8373 10.7695 28.4467 10.878 29.1193 10.881L30.9105 10.8878C31.5816 10.8908 32.194 10.7635 32.2678 10.6068C32.3439 10.4494 31.8566 10.3304 31.1847 10.3409L28.8489 10.3793ZM75.0213 6.2456C74.354 6.17179 73.8357 6.22451 73.8726 6.3616C73.9088 6.50019 74.4835 6.68624 75.1486 6.77588L75.7987 6.86325C76.4645 6.95439 77.0709 6.90769 77.1454 6.76006C77.22 6.61243 76.7364 6.43165 76.0676 6.35859L75.0213 6.2456ZM145.015 20.6467C144.342 20.664 143.837 20.7868 143.892 20.9171C143.947 21.0474 144.542 21.1536 145.212 21.1536H145.867C146.538 21.1536 147.132 21.0255 147.188 20.8689C147.241 20.7122 146.737 20.5992 146.064 20.6173L145.015 20.6467ZM165.552 18.6513C164.88 18.6694 164.376 18.7914 164.432 18.9225C164.487 19.0521 165.081 19.1583 165.752 19.1583H166.407C167.079 19.1583 167.672 19.0295 167.727 18.8728C167.78 18.7146 167.277 18.6039 166.607 18.6212L165.552 18.6513ZM116.201 5.69273C115.529 5.69951 115.119 5.81174 115.291 5.94356C115.464 6.07387 116.152 6.18082 116.823 6.18082H124.055C124.726 6.18082 125.415 6.05353 125.587 5.8946C125.756 5.73792 125.347 5.61364 124.674 5.62042L116.201 5.69273ZM91.7439 5.76579C91.0735 5.77182 90.6667 5.8833 90.8445 6.01361C91.0215 6.14542 91.7167 6.25088 92.3871 6.25088H99.9285C100.6 6.25088 101.293 6.12358 101.47 5.9654C101.647 5.80873 101.241 5.6852 100.569 5.69122L91.7439 5.76579ZM90.4618 16.1679C89.79 16.1777 89.3184 16.2937 89.4141 16.4248C89.509 16.5566 90.1372 16.6643 90.8091 16.6643H93.8039C94.4743 16.6643 95.1025 16.5363 95.1974 16.3796C95.2923 16.2229 94.8208 16.1032 94.1497 16.113L90.4618 16.1679ZM97.0195 16.1672C96.3484 16.177 95.8723 16.2937 95.9635 16.4248C96.0546 16.5566 96.6775 16.6643 97.3494 16.6643H100.026C100.697 16.6643 101.32 16.537 101.412 16.3804C101.503 16.2222 101.027 16.1024 100.356 16.1137L97.0195 16.1672ZM111.071 26.1294C110.399 26.152 109.886 26.2793 109.929 26.4089C109.972 26.5392 110.557 26.6469 111.228 26.6469H111.249C111.92 26.6469 112.505 26.5189 112.55 26.3614C112.596 26.204 112.083 26.0948 111.411 26.1174L111.071 26.1294ZM109.141 9.41295C108.473 9.33536 107.964 9.38809 108.011 9.52443C108.057 9.66603 108.639 9.85359 109.304 9.94548L110.531 10.1165C111.197 10.2069 111.811 10.1632 111.897 10.0155C111.982 9.8679 111.508 9.68562 110.84 9.60803L109.141 9.41295ZM170.466 20.6821C169.798 20.6045 169.29 20.6549 169.339 20.792C169.382 20.9314 169.969 21.1197 170.634 21.2123L171.856 21.3818C172.523 21.473 173.136 21.4293 173.222 21.2824C173.308 21.1363 172.832 20.9532 172.167 20.8772L170.466 20.6821ZM168.244 9.79408C167.741 9.81819 167.352 9.94774 167.381 10.0788C167.409 10.2106 167.797 10.3183 168.242 10.3183C168.69 10.3183 169.077 10.1888 169.105 10.0321C169.134 9.87694 168.748 9.76923 168.244 9.79408ZM197.215 16.3819C196.543 16.3939 196.067 16.5084 196.156 16.6395C196.247 16.7705 196.87 16.8775 197.542 16.8775H200.199C200.869 16.8775 201.495 16.7487 201.583 16.592C201.671 16.4353 201.196 16.3178 200.523 16.3269L197.215 16.3819ZM220.746 5.89008C220.074 5.90514 219.577 6.02491 219.643 6.15597C219.708 6.28703 220.312 6.39248 220.982 6.39248H222.203C222.877 6.39248 223.48 6.26519 223.543 6.10701C223.609 5.95034 223.114 5.83584 222.441 5.85016L220.746 5.89008ZM115.206 27.5124C114.535 27.5214 114.087 27.6344 114.209 27.7655C114.334 27.8965 114.984 28.002 115.655 28.002H120.23C120.901 28.002 121.552 27.8739 121.677 27.7173C121.8 27.5606 121.351 27.4386 120.681 27.4476L115.206 27.5124ZM85.2555 27.5154C84.5836 27.5222 84.1678 27.6329 84.3298 27.764C84.4925 27.8958 85.1734 28.002 85.846 28.002H92.6311C93.303 28.002 93.9862 27.8732 94.1489 27.715C94.3116 27.5583 93.8943 27.4348 93.2232 27.4416L85.2555 27.5154ZM96.3808 27.5064C95.7104 27.5192 95.2336 27.6344 95.3225 27.7655C95.4121 27.8965 96.0343 28.002 96.7054 28.002H99.3184C99.9895 28.002 100.611 27.8732 100.702 27.7165C100.789 27.5598 100.313 27.4408 99.6415 27.4506L96.3808 27.5064ZM43.4458 27.5696C42.7747 27.5854 42.2738 27.706 42.337 27.8363C42.3988 27.9681 42.9976 28.0735 43.671 28.0735H44.7692C45.4404 28.0735 46.0407 27.9455 46.1025 27.7881C46.1657 27.6306 45.6678 27.5169 44.9967 27.532L43.4458 27.5696Z" fill="#F2F2F2"/>
</svg>
