<svg width="227" height="33" viewBox="0 0 227 33" fill="none" xmlns="http://www.w3.org/2000/svg">
<path d="M135.497 17.8944C135.154 17.8343 134.004 17.6428 133.667 17.5814C131.849 17.2541 130.293 16.8292 130.293 14.9989C130.293 13.4279 131.939 12.6952 133.987 12.6952C137.035 12.6952 139.709 14.0773 140.014 14.2299L141.685 9.81904C141.042 9.48531 138.322 8.03141 134.039 8.03141C130.116 8.03141 125.325 10.0926 125.325 15.2207C125.325 19.8101 128.602 21.2828 131.761 21.839C132.197 21.9192 133.568 22.154 133.96 22.2225C136.084 22.5815 137.251 23.3737 137.251 24.7643C137.251 26.5299 135.594 27.3578 133.085 27.3578C129.069 27.3578 126.711 26.1593 126.031 25.8793L124.18 30.1944C124.754 30.4906 127.497 32.0377 132.847 32.0377C138.04 32.0377 142.206 29.4649 142.206 24.6757C142.166 20.2176 139.171 18.5263 135.497 17.8944ZM151.352 0L146.438 2.71961V8.47961H143.85V13.1822H146.438V23.3485C146.438 27.6908 148.221 31.5901 154.513 31.5901H156.481V26.8837H155.743C152.65 26.8837 151.352 25.098 151.352 22.672V13.1822H156.995V8.48026H151.352V0ZM189.742 12.8122C191.66 12.8122 193.624 13.6853 194.214 15.797L198.672 14.0999C197.424 9.68258 193.323 8.03141 189.706 8.03141C183.226 8.03141 180.613 12.0588 180.613 15.9729V24.0949C180.613 28.0077 183.226 32.0383 189.707 32.0383C193.323 32.0383 197.424 30.3839 198.672 25.9672L194.214 24.2708C193.624 26.3805 191.66 27.2582 189.742 27.2582C186.404 27.2582 185.518 25.4291 185.518 23.344V16.7219C185.518 14.6393 186.404 12.8122 189.742 12.8122ZM210.754 18.8594L219.941 8.47961H213.897L205.996 17.5277V0H201.077V31.5895H205.996V24.2352L207.609 22.4114L214.646 31.5901H220.543L210.754 18.8594Z" fill="#C7C7C7"/>
<path d="M170.843 13.5238H165.724C165.333 13.5239 164.959 13.6788 164.682 13.9543C164.406 14.2299 164.25 14.6037 164.249 14.9938V20.5421H159.199V14.9938C159.199 11.3954 162.118 8.48121 165.724 8.48121H170.843V13.5238ZM166.676 26.5469H171.799C172.189 26.5463 172.564 26.3909 172.84 26.115C173.116 25.8391 173.271 25.4651 173.272 25.075V19.5286H178.322V25.075C178.322 28.6734 175.401 31.5901 171.799 31.5901H166.676V26.5469ZM83.1827 8.48056H88.8361V13.1829H83.1827V22.6724C83.1827 25.0976 84.4837 26.8839 87.5798 26.8839H88.3187V31.5901H86.3468C80.0406 31.5901 78.2584 27.691 78.2584 23.3489V13.1829H69.9726V22.6724C69.9726 25.0976 71.2755 26.8839 74.3716 26.8839H75.1079V31.5901H73.1354C66.8324 31.5901 65.0463 27.691 65.0463 23.3489V13.1829H62.5505V8.48121H65.0463V2.72014L69.9726 0V8.47991H78.2591V2.72079L83.1834 0.000646682L83.1827 8.48056ZM30.03 8.03238C28.4725 8.03238 26.8924 8.33375 25.4703 8.93521V0.000646682H20.546V31.5901H25.4703V13.5322C26.4598 12.9113 27.8832 12.5407 29.2755 12.5407C32.371 12.5407 33.8274 14.2591 33.8274 16.7936V31.5908H38.7471V16.121C38.7471 11.4568 35.3641 8.03173 30.03 8.03173M54.9867 26.9945C54.0509 27.4989 52.8665 27.788 51.6879 27.788C48.0128 27.788 46.6315 25.919 46.6315 23.3398V8.48056H41.7079V23.4304C41.7079 29.2419 45.0708 32.0383 51.0818 32.0383C53.9603 32.0383 57.1484 31.3114 59.9084 30.1175V8.48056H54.9867V26.9945ZM11.3393 17.895C10.998 17.8349 9.84334 17.6434 9.50465 17.582C7.68752 17.2547 6.12424 16.8298 6.12424 14.9996C6.12424 13.4287 7.77235 12.6959 9.82715 12.6959C12.8805 12.6959 15.5583 14.078 15.864 14.2306L17.5373 9.81994C16.8975 9.48623 14.1699 8.03238 9.87637 8.03238C5.9481 8.03238 1.14688 10.0935 1.14688 15.2214C1.14688 19.8106 4.42691 21.2832 7.59556 21.8394C8.03204 21.9196 9.40622 22.1544 9.8019 22.2229C11.9292 22.5818 13.0936 23.3741 13.0936 24.7646C13.0936 26.5301 11.4384 27.3579 8.92571 27.3579C4.89771 27.3579 2.53596 26.1596 1.85275 25.8795L0 30.1945C0.577649 30.4907 3.32407 32.0377 8.68545 32.0377C13.8875 32.0377 18.0625 29.465 18.0625 24.676C18.0172 20.2181 15.0189 18.5269 11.3393 17.895ZM104.27 18.283H95.968V16.6015C95.968 14.726 96.9109 12.7147 100.145 12.7147C103.262 12.7147 104.27 14.6743 104.27 16.511V18.283ZM109.194 15.9736C109.194 11.7465 105.969 8.03044 100.168 8.03044C93.5836 8.03044 91.0554 12.1372 91.0554 15.9736V23.649C91.0554 28.9586 94.4527 32.0383 100.168 32.0383C105.21 32.0383 107.827 29.1267 108.604 27.378L104.448 24.8842C104.093 25.9112 102.447 27.3521 100.201 27.3521C97.1564 27.3521 95.9855 25.6558 95.9855 23.5306L95.968 22.2649H109.194V15.9736ZM112.346 15.982V31.5901H117.265V16.4023C117.265 15.0759 118.019 12.8085 121.633 12.8085C122.2 12.8085 123.482 12.9702 123.893 13.0471V8.27943C123.448 8.17207 122.431 8.02979 121.38 8.02979C115.122 8.02979 112.346 11.9509 112.346 15.982Z" fill="#C7C7C7"/>
<path d="M224.961 9.85653C224.961 9.6735 224.841 9.50272 224.522 9.50272H224.203V10.2787H224.522C224.867 10.2787 224.961 10.1304 224.961 9.89069V9.85653ZM224.914 11.5006C224.902 11.5009 224.89 11.498 224.879 11.492C224.868 11.4861 224.86 11.4775 224.854 11.4671L224.474 10.6679H224.203V11.4555C224.203 11.478 224.19 11.5006 224.167 11.5006H223.692C223.668 11.5006 223.644 11.478 223.644 11.4555V9.09155H224.594C225.233 9.09155 225.517 9.48016 225.517 9.84558V9.89069C225.517 10.211 225.34 10.5074 225.02 10.6447L225.495 11.4555C225.506 11.478 225.495 11.5006 225.47 11.5006H224.914ZM224.522 8.48575C223.444 8.48575 222.66 9.29778 222.66 10.3367C222.659 10.5726 222.706 10.8064 222.799 11.0246C222.892 11.2429 223.029 11.4411 223.202 11.6079C223.375 11.7747 223.581 11.9067 223.808 11.9963C224.034 12.0858 224.277 12.1311 224.522 12.1296C225.6 12.1296 226.372 11.3072 226.372 10.3367C226.372 9.30809 225.53 8.48575 224.522 8.48575ZM224.522 12.6671C223.147 12.6671 222.033 11.6617 222.033 10.3367C222.033 10.0222 222.097 9.71089 222.223 9.42052C222.348 9.13016 222.531 8.86646 222.763 8.64457C222.994 8.42268 223.268 8.24695 223.57 8.12746C223.872 8.00797 224.196 7.94707 224.522 7.94826C225.179 7.95013 225.808 8.20241 226.272 8.64995C226.737 9.0975 226.998 9.70391 227 10.3367C227 11.6617 225.897 12.6671 224.522 12.6671Z" fill="#C7C7C7"/>
</svg>
