<svg width="228" height="68" viewBox="0 0 228 68" fill="none" xmlns="http://www.w3.org/2000/svg">
<path d="M86.2186 42.0523C86.2186 44.9234 87.7381 48.5935 91.0739 48.5935C94.1309 48.5935 95.4838 45.4809 95.4838 42.8307C95.4282 39.5518 93.5203 36.4366 90.6852 36.4366C87.4968 36.4366 86.2186 39.5518 86.2186 42.0523ZM97.6342 42.5157C97.6342 46.4995 94.7425 49.039 90.8515 49.039C86.9414 49.039 84.0688 46.4995 84.0688 42.4976C84.0688 38.5498 86.9606 35.9937 90.8334 35.9937C95.5777 35.9937 97.6342 39.2161 97.6342 42.5157ZM103.522 43.3514C105.057 43.3363 106.845 42.6335 106.845 40.8599C106.845 38.9906 105.2 38.2394 103.522 38.2562V43.3514ZM102.117 41.2444C102.117 38.7997 102.036 38.4317 100.246 38.2715V38.0483L104.146 37.919C108.174 37.7923 108.491 39.7562 108.491 40.5242C108.491 41.8668 107.661 42.6338 106.509 43.1448L106.59 43.2557C107.82 45.4128 109.355 48.1613 111.991 48.7049L111.945 48.944C110.251 48.8654 109.004 48.9147 108.075 47.9539C107.022 46.8513 106.191 45.4441 105.856 44.7588C105.216 43.4328 104.64 43.8152 103.522 43.6239V46.1955C103.522 47.9539 103.555 48.274 105.743 48.5786V48.8178H100.135V48.5786C102.052 48.3218 102.069 47.8416 102.117 46.1955V41.2444ZM123.495 47.5846V47.8261C121.786 48.544 120.474 49.0073 118.668 49.0073C115.376 49.0073 112.58 47.0103 112.58 43.5106C112.58 39.9643 115.68 37.7581 119.019 37.7581C120.283 37.7581 121.563 37.9828 122.759 38.3828L122.696 41.1623H122.488C122.089 39.3085 120.811 38.1428 118.876 38.1428C116.113 38.1428 114.434 40.2511 114.434 42.9207C114.434 46.0848 116.688 48.4653 119.866 48.4653C121.321 48.4653 121.307 48.0818 121.307 47.0413V46.0848C121.307 44.3096 120.842 44.1187 119.148 43.9111V43.6709H123.879V43.9108C122.759 44.1355 122.712 44.5821 122.712 45.5723V47.5851L123.495 47.5846ZM129.965 39.3723L128.462 43.5265H131.625L129.965 39.3723ZM128.189 44.2611C127.92 45.0604 127.215 46.7229 127.215 47.4885C127.215 48.4645 128.319 48.4645 129.035 48.5769V48.8158H124.659V48.5767C126.079 48.1922 126.226 47.8733 126.721 46.6275L128.524 41.9129L129.483 39.3077C129.626 38.8934 129.834 38.5084 129.66 38.2066C130.091 38.03 130.491 37.743 130.825 37.3442L134.342 46.7061C134.772 47.8731 135.044 48.3352 136.322 48.5767V48.8156H131.625V48.5765C132.185 48.4472 132.856 48.2719 132.856 47.553C132.856 46.883 132.248 45.3803 131.832 44.2611H128.189ZM147.589 46.3071L147.509 40.4758C147.494 38.9563 147.077 38.5097 145.271 38.1909V37.9517H149.634V38.1909C148.53 38.3344 148.324 38.9421 148.196 39.9801C147.971 41.7384 148.052 45.5893 148.131 49.0722L147.923 49.1202C145.367 46.0994 142.522 43.3035 139.823 40.3973V43.3369C139.823 47.2975 139.728 48.1135 142.043 48.5769V48.8171H137.267V48.5769C139.424 48.3522 139.343 46.8845 139.343 43.2557V40.8584C139.343 39.2616 139.087 38.6394 137.059 38.1913V37.9524H139.693L147.589 46.3071ZM154.681 46.1951C154.729 47.841 154.743 48.3214 156.661 48.5769V48.8169H151.294V48.5769C153.21 48.3212 153.226 47.841 153.274 46.1951V40.5716C153.227 38.9257 153.21 38.4468 151.294 38.1911V37.952H156.661V38.1911C154.743 38.4468 154.729 38.9257 154.681 40.5716V46.1951ZM159.391 37.9526H167.875L167.956 38.0625L160.878 48.3371H162.395C163.642 48.3371 165.351 48.3371 166.518 47.8582C167.828 47.3147 168.308 46.0212 168.595 44.7431L168.834 44.7911C168.707 46.1647 168.435 47.5383 167.909 48.8176H158.704L158.641 48.7051L159.694 47.2669L165.782 38.4315H164.279C163.401 38.4315 161.595 38.4143 160.813 38.7661C159.967 39.1509 159.568 40.2377 159.391 41.1014H159.137L159.391 37.9526ZM175.027 39.3723L173.524 43.5265H176.688L175.027 39.3723ZM173.253 44.2611C172.982 45.0604 172.277 46.7229 172.277 47.4885C172.277 48.4645 173.381 48.4645 174.1 48.5769V48.8158H169.721V48.5767C171.143 48.1922 171.288 47.8733 171.783 46.6275L173.589 41.9129L174.548 39.3077C174.691 38.8934 174.899 38.5084 174.722 38.2066C175.153 38.03 175.553 37.743 175.889 37.3442L179.404 46.7061C179.837 47.8731 180.106 48.3352 181.386 48.5767V48.8156H176.688V48.5765C177.246 48.4472 177.918 48.2719 177.918 47.553C177.918 46.883 177.31 45.3803 176.896 44.2611H173.253ZM192.089 37.4571H192.218L192.44 40.4443L192.218 40.4924C191.658 38.5108 190.78 38.4307 188.942 38.4307H187.984V45.8123C187.984 47.7938 188.079 48.3221 190.221 48.5776V48.8178H184.339V48.5776C186.481 48.3223 186.577 47.794 186.577 45.8123V38.4309H185.618C183.78 38.4309 182.901 38.511 182.342 40.4926L182.118 40.4445L182.342 37.4573H182.469L182.63 37.6008C183.029 37.9675 183.094 37.9533 183.62 37.9533H190.939C191.467 37.9533 191.531 37.9683 191.93 37.6008L192.089 37.4571ZM197.496 46.1951C197.544 47.841 197.56 48.3214 199.477 48.5769V48.8169H194.109V48.5769C196.025 48.3212 196.043 47.841 196.091 46.1951V40.5716C196.043 38.9257 196.025 38.4468 194.109 38.1911V37.952H199.477V38.1911C197.56 38.4468 197.544 38.9257 197.496 40.5716V46.1951ZM203.593 42.9851C203.593 45.4611 204.903 48.6254 207.78 48.6254C210.416 48.6254 211.583 45.9389 211.583 43.6551C211.535 40.828 209.889 38.1441 207.444 38.1441C204.695 38.1441 203.593 40.828 203.593 42.9851ZM213.437 43.3841C213.437 46.8194 210.944 49.0089 207.589 49.0089C204.218 49.0089 201.74 46.8194 201.74 43.3673C201.74 39.9643 204.232 37.7581 207.571 37.7581C211.662 37.7581 213.437 40.5402 213.437 43.3841ZM225.955 46.3071L225.874 40.4758C225.859 38.9563 225.443 38.5097 223.637 38.1909V37.9517H228V38.1909C226.898 38.3344 226.69 38.9421 226.562 39.9801C226.337 41.7384 226.417 45.5893 226.499 49.0722L226.29 49.1202C223.734 46.0994 220.888 43.3035 218.188 40.3973V43.3369C218.188 47.2975 218.092 48.1135 220.411 48.5769V48.8171H215.634V48.5769C217.788 48.3522 217.71 46.8845 217.71 43.2557V40.8584C217.71 39.2616 217.453 38.6394 215.425 38.1913V37.9524H218.061L225.955 46.3071ZM87.3863 30.3349H87.2015L84.1807 19.9749C83.7175 18.6233 83.6619 18.0115 82.123 17.5841V17.3079H87.3667V17.5841C85.1064 17.9186 85.57 18.8648 86.0153 20.383L87.9606 26.9616L90.8694 19.216C90.4989 18.0864 89.8883 17.7881 88.7769 17.5843V17.3077H94.1871V17.5838C92.1668 17.8628 92.408 18.733 92.7424 19.8082L95.0958 27.1471L96.5586 22.9774C96.8746 22.0519 97.7075 19.7332 97.7075 18.845C97.7075 17.9363 96.8748 17.8072 95.8548 17.5838V17.3077H100.691V17.5838C99.5792 17.6588 99.024 18.29 98.6343 19.2711L97.3367 22.8107L94.6128 30.3345H94.409L91.1107 20.0314L87.3863 30.3349ZM103.783 24.0766C103.783 26.5525 105.093 29.7168 107.969 29.7168C110.605 29.7168 111.772 27.0317 111.772 24.7466C111.725 21.9194 110.079 19.2356 107.635 19.2356C104.885 19.2356 103.783 21.9194 103.783 24.0766ZM113.626 24.4755C113.626 27.9108 111.134 30.1003 107.777 30.1003C104.407 30.1003 101.929 27.9108 101.929 24.46C101.929 21.0558 104.422 18.8508 107.762 18.8508C111.853 18.8508 113.626 21.6314 113.626 24.4755ZM119.232 24.4428C120.768 24.4277 122.556 23.725 122.556 21.95C122.556 20.0822 120.911 19.3308 119.232 19.3461V24.4428ZM117.827 22.3346C117.827 19.8909 117.747 19.5217 115.957 19.3616V19.1397L119.857 19.0104C123.883 18.8835 124.202 20.8487 124.202 21.6155C124.202 22.9567 123.37 23.725 122.22 24.236L122.3 24.3469C123.531 26.5041 125.064 29.2526 127.703 29.7961L127.655 30.0352C125.961 29.9566 124.714 30.0059 123.787 29.0449C122.731 27.9425 121.901 26.5353 121.567 25.85C120.925 24.524 120.351 24.9062 119.232 24.7151V27.2867C119.232 29.0451 119.265 29.3652 121.453 29.6699V29.909H115.845V29.6699C117.763 29.4131 117.779 28.9329 117.827 27.2867V22.3346ZM127.924 29.6692C129.843 29.4135 129.858 28.932 129.906 27.2874V21.6626C129.859 20.0167 129.843 19.5378 127.924 19.2821V19.043H133.293V19.2821C131.376 19.5378 131.312 20.0167 131.312 21.6626V26.9039C131.312 27.7032 131.312 28.5498 131.552 29.3181L133.501 29.4615C135.93 29.6356 136.328 28.8844 137.56 26.8397L137.769 26.9351L136.856 29.9081H127.924V29.6692ZM142.417 27.4459C142.417 28.5175 142.609 29.5387 144.589 29.5387C146.426 29.5387 148.904 28.3882 148.904 24.7453C148.904 20.9112 145.883 19.3129 142.417 19.3297V27.4459ZM139.125 19.1373L142.991 19.0081C150.022 18.786 150.757 22.8447 150.757 24.5064C150.757 26.7899 149.287 29.9863 143.79 29.9387L139.029 29.9094V29.6694C140.945 29.4135 140.963 28.9335 141.011 27.2876V21.7443C140.963 20.0984 140.945 19.618 139.125 19.3625V19.1373ZM167.913 16.3662H168.064L168.333 19.9344L168.064 19.9926C167.397 17.625 166.346 17.5295 164.15 17.5295H163.006V26.3494C163.006 28.717 163.121 29.3456 165.678 29.6515V29.9381H158.653V29.6515C161.213 29.3456 161.328 28.7168 161.328 26.3494V17.5295H160.182C157.986 17.5295 156.935 17.625 156.267 19.9926L156.001 19.9344L156.267 16.3662H156.421L156.611 16.5366C157.089 16.9755 157.166 16.9574 157.795 16.9574H166.538C167.167 16.9574 167.246 16.9746 167.721 16.5366L167.913 16.3662ZM173.409 24.4342C174.941 24.4169 176.732 23.7138 176.732 21.9414C176.732 20.0708 175.086 19.3209 173.409 19.3362V24.4342ZM172.002 22.3247C172.002 19.8795 171.923 19.5133 170.134 19.353V19.1283L174.031 19.0016C178.059 18.8723 178.378 20.8388 178.378 21.6068C178.378 22.9481 177.548 23.7138 176.396 24.2261L176.476 24.3385C177.708 26.4957 179.24 29.2429 181.877 29.7877L181.828 30.0268C180.135 29.9467 178.889 29.9939 177.963 29.0365C176.909 27.9341 176.076 26.5269 175.74 25.8401C175.102 24.513 174.528 24.8978 173.409 24.7054V27.2783C173.409 29.0367 173.438 29.3555 175.629 29.6589V29.898H170.021V29.6589C171.937 29.4031 171.955 28.9242 172.002 27.2783L172.002 22.3247Z" fill="#C7C7C7"/>
<path d="M186.51 20.4547L185.007 24.6076H188.171L186.51 20.4547ZM184.737 25.3448C184.465 26.1426 183.762 27.804 183.762 28.5709C183.762 29.5456 184.864 29.5456 185.583 29.658V29.8969H181.204V29.6578C182.627 29.2743 182.771 28.9544 183.266 27.7073L185.072 22.9953L186.031 20.3901C186.174 19.9743 186.382 19.591 186.205 19.2877C186.639 19.1121 187.038 18.823 187.372 18.4238L190.887 27.7885C191.32 28.9542 191.59 29.4176 192.869 29.6578V29.8967H188.171V29.6576C188.732 29.5301 189.402 29.3534 189.402 28.6354C189.402 27.9641 188.794 26.4614 188.379 25.3448H184.737ZM197.238 27.4369C197.238 28.5059 197.431 29.5296 199.411 29.5296C201.248 29.5296 203.725 28.3792 203.725 24.7362C203.725 20.9022 200.704 19.3039 197.238 19.3194L197.238 27.4369ZM193.947 19.127L197.813 18.9992C204.843 18.7746 205.579 22.8346 205.579 24.4975C205.579 26.7811 204.109 29.9777 198.612 29.9299L193.851 29.8969V29.6578C195.767 29.401 195.785 28.9234 195.832 27.2773V21.7329C195.785 20.087 195.767 19.6078 193.947 19.3523V19.127ZM207.816 29.658C209.735 29.4023 209.751 28.9234 209.8 27.2775V21.654C209.751 20.0081 209.734 19.5277 207.816 19.2709V19.0318H216.397L216.205 21.4937H215.967C215.854 19.4308 214.369 19.4152 212.754 19.4152H211.206V23.9697H212.866C214.066 23.9697 214.976 23.8728 215.151 22.5005H215.393V26.0624H215.151C214.945 24.6565 214.066 24.641 212.866 24.641H211.206V27.2602C211.206 28.2028 210.981 29.5143 213.604 29.5143C215.615 29.5143 216.605 28.7463 217.004 26.7348H217.244C217.229 27.947 217.022 28.9398 216.7 29.8963H207.816V29.658Z" fill="#C7C7C7"/>
<path d="M37.3734 6.16211C37.3734 6.16211 28.8427 14.8953 16.7918 14.8953C13.3384 14.8953 10.2235 12.8634 11.7132 8.25978C9.81801 10.63 9.41149 13.7436 9.41149 14.2189C9.41149 14.6913 9.00626 19.1607 17.1972 19.1607C25.3882 19.1607 36.7642 14.1506 40.4209 9.34298L37.3734 6.16211Z" fill="#C7C7C7"/>
<path d="M21.4621 23.9885V28.7276C29.1793 28.1168 54.5871 18.4167 54.5871 7.98977C54.5871 3.99564 50.7297 1.42272 47.4804 0C47.4804 0 51.6759 2.23469 51.6759 6.0261C51.6759 9.81772 45.9693 18.7071 21.4621 23.9885Z" fill="#C7C7C7"/>
<path d="M46.31 25.6133C41.2314 30.0811 28.504 36.3102 14.8266 36.3102C2.30172 36.3102 1.21874 32.0448 3.54235e-05 30.4868C3.54235e-05 30.4868 -0.135257 40.1005 16.3163 40.1005C32.7681 40.1005 47.595 31.5028 49.6244 28.7944L46.31 25.6133Z" fill="#C7C7C7"/>
<path d="M25.4587 44.9071C36.7648 44.2306 70.8397 33.1272 66.7098 13.833C66.7098 13.833 68.605 16.2019 68.605 19.7908C68.605 36.2426 39.9459 49.7166 25.458 49.7166L25.4587 44.9071Z" fill="#C7C7C7"/>
<path d="M71.2204 38.1377C63.1623 59.3299 46.1741 62.5075 40.1484 62.5075V67.5176C59.1048 67.5176 71.2204 50.1879 71.2204 38.1377Z" fill="#C7C7C7"/>
<path d="M53.9604 46.6436C46.7843 51.3141 31.5489 55.6002 17.9421 55.6002C11.916 55.6002 7.51518 53.6367 6.09375 52.3508C6.09375 52.3508 9.20762 59.5517 24.0355 59.5517C43.5998 59.5517 57.0743 51.1799 57.9533 49.894L53.9604 46.6436Z" fill="#C7C7C7"/>
</svg>
