<svg width="226" height="46" viewBox="0 0 226 46" fill="none" xmlns="http://www.w3.org/2000/svg">
<path d="M0 0H45.3206V45.6596H0V0Z" fill="#C7C7C7"/>
<path d="M126.92 9.04004C127.335 9.07771 127.41 9.56745 127.448 9.86884C127.561 11.4134 127.598 12.9204 127.598 14.4649C127.674 15.9342 127.674 17.3658 127.674 18.835C128.502 18.1946 129.294 17.5165 130.273 17.1397C131.818 16.4616 133.701 16.4616 135.208 17.2527C136.828 18.0815 137.958 19.6638 138.523 21.3591C139.051 22.979 139.202 24.712 139.089 26.4073C138.938 28.4039 138.41 30.4006 137.243 32.0205C136.564 32.9624 135.66 33.7912 134.53 34.2056C132.722 34.846 130.725 34.62 129.105 33.6028C128.615 33.3014 128.163 32.8493 127.711 32.4726C127.523 33.0754 127.372 33.6405 127.184 34.2432C126.317 34.2432 125.489 34.3186 124.622 34.1679C124.961 32.8117 124.961 31.3801 124.999 29.9862C125.074 25.051 124.999 20.1159 124.961 15.2184C124.848 13.2971 124.999 11.3758 124.66 9.49211C125.451 9.26607 126.167 9.04004 126.92 9.04004ZM133.249 19.2117C132.496 19.061 131.742 19.061 130.989 19.1364C129.633 19.3248 128.54 20.2666 127.674 21.2461C127.636 21.5851 127.674 21.8865 127.636 22.2256V30.0615C127.598 30.3253 127.824 30.5136 128.013 30.6643C129.331 31.9452 131.29 32.548 133.099 32.0959C133.965 31.8698 134.718 31.3048 135.133 30.5136C135.773 29.4211 135.999 28.1402 136.112 26.897C136.188 25.9552 136.301 24.9757 136.188 24.0339C136.15 22.9414 135.924 21.7735 135.359 20.8317C134.907 20.0405 134.153 19.4001 133.249 19.2117ZM144.476 9.71815C145.003 9.52978 145.606 9.56746 146.133 9.7935C146.623 10.0949 146.962 10.547 147.188 11.0744C147.527 12.2046 146.623 13.4854 145.455 13.6361C144.551 13.7492 143.572 13.2217 143.308 12.3176C142.931 11.3381 143.496 10.1326 144.476 9.71815ZM64.1193 11.7902C65.4002 10.9237 66.9071 10.2456 68.4894 10.2456C70.1093 10.2079 71.7669 10.3209 73.2362 11.0367C73.8389 11.3004 74.4417 11.6018 74.9691 12.0539C74.5924 12.6943 74.1026 13.2594 73.6506 13.8245C73.0478 13.4854 72.4827 13.1087 71.8423 12.8827C70.26 12.3176 68.4517 12.2046 66.8694 12.845C65.5509 13.3724 64.4584 14.3896 63.7803 15.6328C63.3282 16.4993 62.9138 17.4411 62.7254 18.4206C62.5747 19.3624 62.4994 20.3419 62.4617 21.3214C62.424 22.6023 62.3487 23.9209 62.424 25.2017C62.6501 27.01 63.2528 28.8183 64.496 30.1746C65.5509 31.4178 67.1331 32.1336 68.7531 32.2842C69.5819 32.3219 70.4484 32.3219 71.2772 32.1336C72.2943 31.9075 73.1608 31.3801 74.1026 30.9657C74.6301 31.4931 75.1198 32.0959 75.5719 32.7363C74.8938 33.1131 74.178 33.4898 73.4245 33.7912C71.4655 34.5823 69.2428 34.62 67.1708 34.3939C65.6639 34.0926 64.27 33.3014 63.1021 32.3219C61.7459 31.1541 60.7664 29.6095 60.2013 27.9142C59.7869 26.784 59.5986 25.5785 59.4855 24.4106C59.4479 23.5065 59.3348 22.64 59.4479 21.7358C59.4855 20.0405 59.7492 18.3829 60.4274 16.8007C61.1808 14.8417 62.3864 12.9957 64.1193 11.7902Z" fill="#C7C7C7"/>
<path d="M13.4497 11.3772C13.6381 11.3395 13.8641 11.2642 14.0525 11.2642C15.032 11.2265 16.0115 11.3018 16.991 11.3395C17.1417 11.3018 17.217 11.4525 17.2547 11.5656C18.7239 14.6171 20.1932 17.7062 21.7001 20.7578C22.0391 21.3982 22.3029 22.0386 22.6796 22.6414C22.981 22.1517 23.2447 21.6242 23.5084 21.0968C25.2037 17.8193 26.7859 14.5417 28.4435 11.2642C29.5361 11.3018 30.6286 11.1888 31.7211 11.3772C31.5327 12.0176 31.156 12.5451 30.8923 13.1478C28.7073 17.3295 26.4846 21.5112 24.2995 25.6929C24.2242 25.8436 24.1865 26.032 24.1865 26.2203C24.1865 29.1965 24.1865 32.2103 24.1865 35.1865C23.1317 35.1865 22.0768 35.1865 21.022 35.1865C21.022 32.2857 21.022 29.3472 21.022 26.4464C21.022 26.145 21.0596 25.8059 20.8713 25.5045C18.8369 21.6996 16.8403 17.8946 14.8059 14.052C14.3539 13.1478 13.8641 12.2813 13.4497 11.3772Z" fill="white"/>
<path d="M188.704 12.6961C189.57 12.4324 190.474 12.2064 191.379 12.0557C191.228 13.7133 191.115 15.3709 191.077 17.0662C192.471 17.1038 193.903 17.1038 195.297 17.1415C195.07 17.782 194.807 18.4224 194.505 19.0252C193.3 19.0252 192.132 19.0252 190.926 19.0252C190.926 20.5698 190.926 22.1143 190.926 23.6589C190.926 24.8645 191.002 26.1077 190.964 27.3132C191.002 28.7071 190.926 30.101 191.077 31.4572C191.115 32.0223 191.642 32.4367 192.132 32.5874C192.998 32.7758 193.903 32.7004 194.731 32.5121C194.957 33.0018 195.07 33.5669 195.033 34.0943C194.279 34.5088 193.375 34.5841 192.509 34.6594C191.303 34.6971 189.947 34.5087 189.08 33.5669C188.365 32.8888 188.44 31.834 188.327 30.9298C188.252 28.9708 188.289 26.9742 188.252 25.0152C188.252 23.0185 188.252 20.9842 188.252 18.9875C187.498 18.9875 186.745 18.9875 185.991 18.9875C185.954 18.347 185.954 17.6689 185.991 17.0285C186.745 17.0285 187.461 17.0285 188.214 17.0285C188.478 15.5969 188.478 14.1277 188.704 12.6961ZM85.7059 16.6518C86.4217 16.6894 87.1375 16.6518 87.8156 16.8778C89.3978 17.4052 90.7164 18.4977 91.5452 19.9293C92.261 21.1725 92.7507 22.5664 92.7884 23.998C92.8638 25.9193 92.9391 27.916 92.3363 29.762C91.7712 31.4949 90.5657 33.0395 88.9081 33.906C87.2881 34.7348 85.3292 34.9232 83.5962 34.4334C82.0139 34.019 80.6577 32.9642 79.7536 31.6079C78.7364 30.1387 78.3973 28.368 78.3597 26.5974C78.322 24.9021 78.2843 23.1692 78.8494 21.5492C79.3768 19.967 80.394 18.4977 81.8256 17.5936C82.466 17.1792 83.1818 16.8401 83.9353 16.6894C84.538 16.6141 85.1408 16.6518 85.7059 16.6518ZM84.3497 18.8368C83.4455 19.0628 82.579 19.5902 82.0893 20.3814C81.3735 21.5492 81.2605 22.9431 81.1851 24.2617C81.1098 25.2412 81.1851 26.2207 81.2605 27.2002C81.4112 28.368 81.6372 29.6113 82.2023 30.6661C82.8051 31.7963 84.0859 32.3614 85.3292 32.4367C86.497 32.5121 87.7779 32.2107 88.6067 31.3065C89.2848 30.5531 89.6615 29.6113 89.8122 28.5941C90.0006 27.3509 89.9629 26.1077 89.9253 24.8645C89.8876 23.5836 89.7746 22.2274 89.2471 21.0218C88.9458 20.2684 88.3807 19.6279 87.6649 19.2512C86.6854 18.6484 85.4422 18.5731 84.3497 18.8368ZM97.4975 17.2169C98.2887 16.9531 99.0798 16.7648 99.9086 16.6141C100.248 17.3675 100.436 18.1964 100.511 19.0252C101.076 18.7238 101.491 18.2717 102.018 17.9326C103.186 17.0662 104.618 16.5387 106.087 16.6141C106.426 16.6518 106.727 16.7271 107.029 16.8778C107.519 17.1415 108.046 17.4052 108.46 17.7819C108.875 18.1964 109.176 18.7238 109.478 19.2512C110.156 18.9498 110.645 18.4224 111.248 18.008C112.265 17.2922 113.433 16.7271 114.714 16.6141C115.882 16.5011 117.05 16.8778 117.916 17.6689C118.293 18.0457 118.707 18.4224 118.896 18.9121C119.084 19.4019 119.159 19.9293 119.197 20.4567C119.386 23.2069 119.272 25.9947 119.386 28.7448C119.386 30.5908 119.386 32.3991 119.386 34.245C118.481 34.245 117.577 34.2827 116.635 34.245C116.635 31.4949 116.635 28.7448 116.635 25.9947C116.635 24.224 116.673 22.4534 116.522 20.6828C116.447 20.1177 116.146 19.5902 115.694 19.2512C115.166 18.9121 114.488 18.9498 113.885 18.9875C112.793 19.1005 111.926 19.7786 111.097 20.4191C110.721 20.7581 110.306 21.0595 109.93 21.3986C109.817 21.4739 109.854 21.6623 109.854 21.7753C109.854 25.9193 109.854 30.0633 109.854 34.2074C108.95 34.2074 108.046 34.2074 107.142 34.2074V24.5254C107.142 23.7343 107.142 22.9431 107.104 22.1897C107.066 21.3986 107.142 20.5321 106.765 19.8163C106.2 19.0252 105.107 18.8745 104.241 19.1005C102.885 19.4396 101.679 20.2684 100.662 21.2102C100.511 21.3232 100.511 21.5116 100.511 21.6999C100.511 25.8816 100.511 30.0633 100.511 34.245C99.7202 34.2827 98.9291 34.2827 98.138 34.245C98.0626 29.988 98.1003 25.6933 97.9873 21.3986C97.9496 20.4191 97.9496 19.4396 97.8366 18.4977C97.7236 18.0457 97.5729 17.6313 97.4975 17.2169ZM143.835 17.0662C144.702 16.9531 145.568 16.8024 146.435 16.6141C146.548 19.0252 146.51 21.4362 146.51 23.8473C146.51 27.3132 146.51 30.7791 146.51 34.245C145.606 34.2827 144.702 34.2827 143.798 34.245C143.76 29.2722 143.798 24.337 143.798 19.3642C143.835 18.6108 143.798 17.8196 143.835 17.0662ZM178.758 16.7271C180.604 17.0662 182.186 18.7614 182.224 20.6828C182.337 23.5459 182.186 26.4091 182.224 29.2722V30.1387C182.224 30.7038 182.262 31.2689 182.412 31.834C182.525 32.3991 183.053 32.7004 183.467 33.0395C183.09 33.5669 182.751 34.1697 182.262 34.6218C181.96 34.8855 181.584 34.5841 181.358 34.4334C180.717 33.9437 180.265 33.2279 179.888 32.5121C179.286 32.8511 178.871 33.3409 178.268 33.6799C177.289 34.3204 176.121 34.6971 174.915 34.6594C173.861 34.6971 172.768 34.5087 171.826 34.019C170.282 33.1902 169.415 31.3819 169.453 29.6866C169.453 28.029 170.282 26.4091 171.6 25.4296C173.183 24.224 175.217 23.8473 177.138 23.6966C178.005 23.6213 178.909 23.6213 179.813 23.5836C179.851 22.7171 179.775 21.8506 179.662 20.9841C179.549 20.2684 179.21 19.5149 178.532 19.1382C177.741 18.7238 176.799 18.6861 175.895 18.8368C174.237 19.0252 172.693 19.7409 171.337 20.7204C170.96 20.193 170.583 19.7033 170.282 19.1382C170.131 18.8745 170.357 18.6484 170.583 18.5354C172.391 17.5182 174.388 16.6518 176.498 16.6894H177.402C177.854 16.6518 178.306 16.6518 178.758 16.7271ZM177.628 25.3542C176.799 25.4296 175.933 25.4672 175.141 25.6933C174.162 25.957 173.258 26.5974 172.73 27.4639C172.429 27.9537 172.429 28.5564 172.391 29.1215C172.391 29.7243 172.316 30.4024 172.542 30.9675C172.768 31.5703 173.183 32.1354 173.785 32.3614C174.463 32.6628 175.255 32.7004 176.008 32.6251C176.912 32.5121 177.703 32.0223 178.381 31.4949C178.946 31.0052 179.512 30.4024 179.549 29.6113C179.662 28.2174 179.625 26.8235 179.662 25.4296C178.984 25.4296 178.306 25.2789 177.628 25.3542ZM207.163 16.7648C208.708 17.1415 210.102 18.0833 211.006 19.3642C211.76 20.4191 212.249 21.6246 212.475 22.9055C212.664 24.111 212.739 25.3542 212.664 26.5598C212.626 28.5564 212.023 30.5531 210.818 32.1353C209.838 33.4162 208.331 34.1697 206.787 34.4711C204.903 34.8101 202.869 34.4711 201.287 33.3409C199.893 32.3614 199.026 30.7791 198.536 29.1969C198.273 28.3681 198.235 27.5392 198.16 26.6728C198.122 25.2412 198.122 23.8096 198.386 22.4157C198.762 20.8335 199.554 19.2889 200.759 18.1587C201.663 17.3299 202.793 16.8025 203.999 16.6518C205.054 16.5387 206.109 16.5764 207.163 16.7648ZM204.187 18.7991C202.906 18.9498 201.889 19.967 201.475 21.1348C200.947 22.378 201.023 23.7343 200.985 25.0528C201.023 26.296 201.023 27.5392 201.249 28.7825C201.4 29.6113 201.663 30.4401 202.228 31.0805C202.756 31.721 203.547 32.1353 204.338 32.286C204.639 32.3614 204.978 32.3991 205.28 32.3991H205.581L205.883 32.3614C206.523 32.286 207.126 32.0977 207.691 31.7963C208.369 31.4196 208.859 30.7038 209.122 29.988C209.462 29.1215 209.499 28.1797 209.575 27.2755C209.612 26.183 209.65 25.0905 209.575 23.998C209.499 22.8678 209.349 21.6999 208.821 20.6828C208.331 19.9293 207.653 19.2889 206.824 18.9121C206.033 18.6861 205.092 18.6861 204.187 18.7991ZM217.298 17.2545C218.126 17.0285 218.917 16.7648 219.746 16.5764C220.198 17.4052 220.274 18.3847 220.311 19.2889C220.726 18.9875 221.065 18.5731 221.442 18.1964C222.609 17.0285 224.342 16.3127 226 16.6141V16.8401C225.623 17.6313 225.397 18.4977 225.058 19.3265C225.02 19.4772 224.794 19.4396 224.681 19.4396C223.966 19.4396 223.174 19.4396 222.534 19.8163C221.894 20.193 221.329 20.6828 220.876 21.2855C220.424 21.8506 220.5 22.6418 220.5 23.3199C220.462 24.2994 220.424 25.2789 220.462 26.2584C220.462 28.8955 220.462 31.5703 220.462 34.2074C219.558 34.245 218.654 34.245 217.75 34.2074C217.75 31.2689 217.75 28.2927 217.75 25.3542C217.75 23.3575 217.75 21.3232 217.674 19.3265C217.599 18.6484 217.373 17.9703 217.298 17.2545ZM151.86 17.2922C152.651 17.0285 153.48 16.7271 154.308 16.7271C154.61 17.5182 154.798 18.347 154.911 19.1759C155.627 18.7238 156.23 18.121 156.983 17.7066C158.415 16.8778 160.148 16.275 161.768 16.8778C162.709 17.2169 163.651 17.7443 164.216 18.6108C164.668 19.2135 164.781 20.0423 164.857 20.7958C165.007 23.4706 164.97 26.1453 164.97 28.8578C164.97 30.6661 165.007 32.4367 165.007 34.245C164.103 34.2827 163.199 34.2827 162.295 34.245C162.295 31.3065 162.22 28.3304 162.22 25.3919C162.182 23.7343 162.257 22.1143 162.069 20.4567C161.805 19.6656 161.052 19.0252 160.223 18.9875C159.62 18.9498 158.98 18.9498 158.377 19.1759C157.096 19.6656 155.928 20.4567 154.873 21.3232C154.836 25.6179 154.873 29.9503 154.873 34.245C154.082 34.245 153.291 34.2827 152.5 34.245C152.5 31.7963 152.425 29.3476 152.425 26.8988C152.387 24.3747 152.425 21.8883 152.274 19.3642C152.236 18.6484 152.01 17.9703 151.86 17.2922Z" fill="#C7C7C7"/>
</svg>
