<svg width="59" height="46" viewBox="0 0 59 46" fill="none" xmlns="http://www.w3.org/2000/svg">
<mask id="mask0_3427_825" style="mask-type:luminance" maskUnits="userSpaceOnUse" x="0" y="0" width="50" height="40">
<path d="M49.0195 39.2852L0.00278854 39.2852L0.00278647 0.225128L49.0195 0.225121L49.0195 39.2852Z" fill="white"/>
</mask>
<g mask="url(#mask0_3427_825)">
<path d="M0.00339452 22.7254C0.00339475 29.5246 5.69147 35.2255 12.5034 35.2255C12.5038 35.2255 13.1031 35.2255 13.8823 35.2255L12.443 36.6648C11.8572 37.251 11.8572 38.2002 12.443 38.786C13.0287 39.3721 13.978 39.3721 14.5641 38.786L18.5639 34.7862C19.15 34.2001 19.15 33.2509 18.5639 32.6651L14.5641 28.665C13.9837 28.0849 13.023 28.0849 12.443 28.665C11.8572 29.2511 11.8572 30.2 12.443 30.7861L13.8823 32.2255C13.3318 32.2255 12.5034 32.2255 12.5034 32.2255C7.32786 32.2255 3.00339 27.8946 3.00339 22.7254C3.00339 18.3444 5.91909 14.6708 10.0035 13.5811L10.0035 23.786C10.0035 24.6144 10.6753 25.2862 11.5037 25.2862C12.3316 25.2862 13.0035 24.6144 13.0035 23.786L13.0035 3.72572C13.0035 3.45435 13.2322 3.22566 13.5035 3.22566L45.5034 3.22565C45.7747 3.22565 46.0034 3.45434 46.0034 3.76483C46.0034 4.59281 46.6753 5.24509 47.5032 5.24509C48.3316 5.24509 49.0034 4.55368 49.0034 3.72571C49.0034 1.79589 47.4332 0.225655 45.5034 0.225655L13.5035 0.225663C11.5737 0.225664 10.0035 1.7959 10.0035 3.72572L10.0035 10.4954C4.21654 11.6488 0.00339431 16.6814 0.00339452 22.7254Z" fill="#1C1C1C"/>
</g>
<mask id="mask1_3427_825" style="mask-type:luminance" maskUnits="userSpaceOnUse" x="9" y="6" width="51" height="40">
<path d="M9.98535 6.94043H59.0021V46.0005H9.98535V6.94043Z" fill="white"/>
</mask>
<g mask="url(#mask1_3427_825)">
<path d="M59.002 23.5001C59.002 16.701 53.3139 11.0001 46.5019 11.0001C46.5016 11.0001 45.9023 11.0001 45.123 11.0001L46.5624 9.56075C47.1482 8.97463 47.1482 8.02537 46.5624 7.4396C45.9766 6.85347 45.0274 6.85347 44.4412 7.4396L40.4415 11.4394C39.8554 12.0255 39.8554 12.9747 40.4415 13.5605L44.4412 17.5606C45.0217 18.1407 45.9823 18.1407 46.5624 17.5606C47.1482 16.9745 47.1482 16.0256 46.5624 15.4395L45.123 14.0001C45.6736 14.0001 46.5019 14.0001 46.5019 14.0001C51.6775 14.0001 56.002 18.331 56.002 23.5001C56.002 27.8812 53.0863 31.5548 49.0019 32.6445V22.4396C49.0019 21.6112 48.33 20.9394 47.5017 20.9394C46.6737 20.9394 46.0019 21.6112 46.0019 22.4396V42.4999C46.0019 42.7712 45.7732 42.9999 45.5018 42.9999H13.502C13.2306 42.9999 13.0019 42.7712 13.0019 42.4608C13.0019 41.6328 12.3301 40.9805 11.5021 40.9805C10.6738 40.9805 10.002 41.6719 10.002 42.4999C10.002 44.4297 11.5722 45.9999 13.502 45.9999H45.5018C47.4316 45.9999 49.0019 44.4297 49.0019 42.4999V35.7302C54.7888 34.5768 59.002 29.5442 59.002 23.5001Z" fill="#1C1C1C"/>
</g>
<path d="M18.6761 14.4668H35.2425C36.0046 14.4668 36.6229 13.7833 36.6229 12.9407C36.6229 12.0985 36.0046 11.415 35.2425 11.415H18.6761C17.9137 11.415 17.2954 12.0985 17.2954 12.9407C17.2954 13.7833 17.9137 14.4668 18.6761 14.4668Z" fill="#1C1C1C"/>
<path d="M23.7625 34.8115H40.329C41.091 34.8115 41.7093 34.1281 41.7093 33.2854C41.7093 32.4432 41.091 31.7598 40.329 31.7598H23.7625C23.0002 31.7598 22.3818 32.4432 22.3818 33.2854C22.3818 34.1281 23.0002 34.8115 23.7625 34.8115Z" fill="#1C1C1C"/>
<path d="M40.3526 21.5869H18.6519C17.9029 21.5869 17.2954 22.2703 17.2954 23.1126C17.2954 23.9552 17.9029 24.6386 18.6519 24.6386H40.3526C41.1016 24.6386 41.7091 23.9552 41.7091 23.1126C41.7091 22.2703 41.1016 21.5869 40.3526 21.5869Z" fill="#1C1C1C"/>
</svg>
