<svg width="40" height="46" viewBox="0 0 40 46" fill="none" xmlns="http://www.w3.org/2000/svg">
<mask id="mask0_3427_842" style="mask-type:luminance" maskUnits="userSpaceOnUse" x="0" y="0" width="40" height="46">
<path d="M0 0H39.8703V46H0V0Z" fill="white"/>
</mask>
<g mask="url(#mask0_3427_842)">
<path fill-rule="evenodd" clip-rule="evenodd" d="M33.353 11.2624L24.4376 0.855776C24.3655 0.708579 24.2689 0.572118 24.1494 0.452327C23.8629 0.162736 23.4705 0 23.0631 0H1.54635C0.700458 0 0.013916 0.687107 0.013916 1.53328V44.4667C0.013916 45.3132 0.700458 46 1.54635 46H16.8706C17.7165 46 18.4031 45.3132 18.4031 44.4667C18.4031 43.6203 17.7165 42.9334 16.8706 42.9334H3.07877V3.06684H21.5213L21.4676 12.2575C21.4648 12.6654 21.6256 13.0579 21.9138 13.3477C22.2016 13.6376 22.5927 13.8001 23.0001 13.8001H30.6622V18.4002C30.6622 19.2463 31.3488 19.9334 32.1946 19.9334C33.0405 19.9334 33.7271 19.2463 33.7271 18.4002V12.2668C33.7271 11.8834 33.5861 11.5322 33.353 11.2624ZM27.5974 21.4667C20.8317 21.4667 15.3382 26.9639 15.3382 33.7335C15.3382 40.5031 20.8317 46 27.5974 46C34.363 46 39.8568 40.5031 39.8568 33.7335C39.8568 26.9639 34.363 21.4667 27.5974 21.4667ZM27.5974 24.5333C32.6713 24.5333 36.7919 28.6565 36.7919 33.7335C36.7919 38.8102 32.6713 42.9334 27.5974 42.9334C22.5234 42.9334 18.4031 38.8102 18.4031 33.7335C18.4031 28.6565 22.5234 24.5333 27.5974 24.5333ZM26.0649 31.3015V39.8666C26.0649 40.7131 26.7515 41.4002 27.5974 41.4002C28.4432 41.4002 29.1298 40.7131 29.1298 39.8666V31.3015L31.1112 33.284C31.709 33.8821 32.6803 33.8821 33.2781 33.284C33.8757 32.6862 33.8757 31.714 33.2781 31.1159L28.6809 26.5161C28.0833 25.9165 27.1117 25.9165 26.5139 26.5161L21.9169 31.1159C21.319 31.714 21.319 32.6862 21.9169 33.284C22.5144 33.8821 23.486 33.8821 24.0836 33.284L26.0649 31.3015ZM6.14363 29.1334H12.2733C13.1192 29.1334 13.8058 28.4466 13.8058 27.6001C13.8058 26.7537 13.1192 26.0668 12.2733 26.0668H6.14363C5.29775 26.0668 4.6112 26.7537 4.6112 27.6001C4.6112 28.4466 5.29775 29.1334 6.14363 29.1334ZM6.14363 23H18.4031C19.249 23 19.9352 22.3132 19.9352 21.4667C19.9352 20.6203 19.249 19.9334 18.4031 19.9334H6.14363C5.29775 19.9334 4.6112 20.6203 4.6112 21.4667C4.6112 22.3132 5.29775 23 6.14363 23ZM6.14363 16.8666H15.3382C16.1841 16.8666 16.8706 16.1798 16.8706 15.3333C16.8706 14.4869 16.1841 13.8001 15.3382 13.8001H6.14363C5.29775 13.8001 4.6112 14.4869 4.6112 15.3333C4.6112 16.1798 5.29775 16.8666 6.14363 16.8666ZM24.5418 10.7335H28.8631L24.5709 5.72401L24.5418 10.7335Z" fill="#1C1C1C"/>
</g>
</svg>
