<svg width="246" height="246" viewBox="0 0 246 246" fill="none" xmlns="http://www.w3.org/2000/svg">
<path fill-rule="evenodd" clip-rule="evenodd" d="M122.998 36.0293C171.035 36.0293 209.973 74.9676 209.973 123.004C209.973 171.04 171.035 209.979 122.998 209.979C74.9618 209.979 36.0234 171.04 36.0234 123.004C36.0234 74.9676 74.9618 36.0293 122.998 36.0293Z" fill="#172635"/>
<path fill-rule="evenodd" clip-rule="evenodd" d="M58.8847 174.751C60.168 171.311 61.767 168.014 63.6776 164.947C17.9168 87.3617 125.954 70.8097 111.476 109.81C101.361 137.05 144.633 137.05 134.519 109.81C120.041 70.8097 228.078 87.3617 182.317 164.947C184.224 168.014 185.827 171.311 187.11 174.751C192.043 168.654 196.114 161.852 199.152 154.521C203.166 144.828 205.38 134.184 205.38 123.004C205.38 111.823 203.166 101.175 199.152 91.4863C194.986 81.4289 188.865 72.3595 181.255 64.7498C173.646 57.1401 164.576 51.0187 154.519 46.853C144.826 42.839 134.182 40.625 122.997 40.625C111.812 40.625 101.169 42.839 91.4761 46.853C81.4186 51.0187 72.3493 57.1401 64.7395 64.7498C57.1298 72.3595 51.0084 81.4289 46.8428 91.4863C42.8288 101.179 40.6147 111.823 40.6147 123.008C40.6147 134.193 42.8288 144.836 46.8428 154.529C49.8768 161.856 53.9523 168.662 58.8847 174.759V174.751Z" fill="#384959"/>
<path fill-rule="evenodd" clip-rule="evenodd" d="M182.014 180.489C173.416 150.928 143.359 142.08 122.998 161.161C102.637 142.08 72.5793 150.923 63.9814 180.489C64.2315 180.747 64.4858 181.002 64.74 181.26C72.3497 188.87 81.419 194.991 91.4765 199.157C101.169 203.171 111.813 205.389 122.994 205.389C134.175 205.389 144.822 203.175 154.511 199.157C164.568 194.991 173.638 188.87 181.247 181.26C181.502 181.006 181.756 180.747 182.006 180.489H182.014Z" fill="#F33766"/>
<path fill-rule="evenodd" clip-rule="evenodd" d="M193.441 80.24C191.908 81.1298 190.108 81.6423 188.185 81.6423H57.8107C55.8878 81.6423 54.0879 81.1298 52.5544 80.24C55.9903 74.6025 60.0863 69.3995 64.7398 64.7459C72.3496 57.1362 81.4189 51.0148 91.4764 46.8491C101.169 42.8351 111.813 40.6211 122.998 40.6211C134.183 40.6211 144.826 42.8351 154.519 46.8491C164.576 51.0148 173.646 57.1362 181.256 64.7459C185.909 69.3995 190.005 74.5984 193.441 80.24Z" fill="white"/>
<path d="M167.369 15.7782C153.716 10.1243 138.73 7 122.998 7C107.266 7 92.2761 10.1202 78.627 15.7782C64.4571 21.6495 51.6854 30.2679 40.976 40.9773C30.2667 51.6866 21.6442 64.4584 15.777 78.6282C10.123 92.2814 6.99878 107.267 6.99878 122.999C6.99878 135.541 8.99141 147.6 12.6692 158.887C16.4904 170.625 22.1362 181.552 29.2539 191.339C30.0289 192.368 39.0982 204.623 35.0186 212.807C32.9112 217.034 30.3487 220.786 27.0071 224.115C23.6902 227.424 19.6475 230.257 14.5757 232.664C14.3338 232.778 14.1657 232.918 14.0796 233.053C14.3502 233.201 14.8463 233.287 15.6171 233.27C20.7586 233.16 25.5721 232.553 30.2339 231.577C34.8997 230.601 39.4385 229.236 44.0265 227.604C50.767 225.214 55.4247 224.053 59.5575 223.98C63.9036 223.902 67.3887 224.988 71.6937 227.067C79.6479 230.913 88.0735 233.947 96.8723 235.993C105.253 237.94 113.99 238.994 122.998 238.994C138.73 238.994 153.716 235.874 167.369 230.216C181.539 224.345 194.31 215.726 205.024 205.017C215.733 194.307 224.352 181.536 230.223 167.362C235.877 153.709 239.001 138.723 239.001 122.991C239.001 107.259 235.881 92.2732 230.223 78.62C224.352 64.4501 215.733 51.6784 205.024 40.965C194.314 30.2556 181.543 21.6331 167.373 15.7659L167.369 15.7782ZM157.172 40.3951C168.131 44.9338 177.98 51.5718 186.205 59.7966C194.429 68.0213 201.067 77.8697 205.606 88.8291C209.973 99.3745 212.383 110.916 212.383 123.003C212.383 135.09 209.973 146.632 205.606 157.177C201.067 168.137 194.429 177.985 186.205 186.21C177.98 194.435 168.131 201.073 157.172 205.611C146.627 209.978 135.085 212.389 122.998 212.389C110.911 212.389 99.3692 209.978 88.8279 205.611C77.8684 201.073 68.0201 194.435 59.7954 186.21C51.5706 177.985 44.9326 168.137 40.3938 157.177C36.0273 146.636 33.6164 135.09 33.6164 123.003C33.6164 110.916 36.0273 99.3745 40.3938 88.8291C44.9326 77.8697 51.5706 68.0213 59.7954 59.7966C68.0201 51.5718 77.8684 44.9338 88.8279 40.3951C99.3692 36.0285 110.915 33.6176 123.002 33.6176C135.089 33.6176 146.631 36.0285 157.176 40.3951H157.172Z" fill="#06D9C1"/>
<path d="M122.998 0C139.636 0 155.52 3.31696 170.022 9.32355C185.093 15.568 198.644 24.7029 209.973 36.0273C221.297 47.3517 230.432 60.9024 236.676 75.9784C242.683 90.4803 246 106.364 246 123.002C246 139.64 242.683 155.524 236.676 170.026C230.432 185.098 221.297 198.648 209.973 209.977C198.648 221.301 185.098 230.436 170.022 236.681C155.52 242.687 139.636 246.004 122.998 246.004C113.486 246.004 104.224 244.885 95.3102 242.814C85.9866 240.645 77.0649 237.435 68.6556 233.368C65.3141 231.752 62.7023 230.908 59.6642 230.965C56.4128 231.022 52.3989 232.06 46.3513 234.204C41.5173 235.918 36.6956 237.365 31.6566 238.423C26.6217 239.477 21.3901 240.133 15.7525 240.252C12.8332 240.313 10.6602 239.44 9.21285 238.107C8.15913 237.14 7.49902 235.951 7.20792 234.676C6.92501 233.437 6.99882 232.142 7.41292 230.92C8.04433 229.059 9.47526 227.357 11.595 226.348C15.9165 224.298 19.3236 221.916 22.083 219.165C24.8218 216.434 26.962 213.286 28.7538 209.69C31.0088 205.163 23.8829 195.815 23.6533 195.516L23.6451 195.508L23.5918 195.438C16.06 185.077 10.078 173.498 6.023 161.042C2.11563 149.05 0 136.262 0 122.994C0 106.356 3.31695 90.4721 9.32355 75.9702C15.568 60.8983 24.7029 47.3476 36.0273 36.0191C47.3517 24.6947 60.9024 15.5598 75.9784 9.31535C90.4762 3.31695 106.36 0 122.998 0ZM167.369 15.7771C153.716 10.1231 138.73 6.99882 122.998 6.99882C107.266 6.99882 92.2761 10.119 78.627 15.7771C64.4572 21.6484 51.6854 30.2667 40.9761 40.9761C30.2667 51.6855 21.6443 64.4572 15.7771 78.627C10.1231 92.2802 6.99881 107.266 6.99881 122.998C6.99881 135.54 8.99145 147.598 12.6692 158.886C16.4905 170.624 22.1363 181.551 29.254 191.338C30.0289 192.367 39.0982 204.622 35.0187 212.806C32.9112 217.033 30.3487 220.785 27.0071 224.114C23.6902 227.423 19.6475 230.256 14.5757 232.662C14.3338 232.777 14.1657 232.917 14.0796 233.052C14.3502 233.2 14.8463 233.286 15.6172 233.269C20.7586 233.159 25.5721 232.552 30.2339 231.576C34.8998 230.6 39.4385 229.235 44.0265 227.603C50.767 225.213 55.4247 224.052 59.5576 223.979C63.9037 223.901 67.3887 224.987 71.6938 227.066C79.6479 230.912 88.0735 233.946 96.8723 235.992C105.253 237.939 113.99 238.993 122.998 238.993C138.73 238.993 153.716 235.873 167.369 230.215C181.539 224.343 194.31 215.725 205.024 205.016C215.733 194.306 224.352 181.535 230.223 167.361C235.877 153.707 239.001 138.722 239.001 122.99C239.001 107.258 235.881 92.272 230.223 78.6188C224.352 64.449 215.733 51.6773 205.024 40.9638C194.314 30.2544 181.543 21.632 167.373 15.7648L167.369 15.7771ZM181.252 64.7483C173.642 57.1385 164.573 51.0171 154.515 46.8515C144.823 42.8375 134.179 40.6235 122.994 40.6235C111.809 40.6235 101.165 42.8375 91.4725 46.8515C81.415 51.0171 72.3457 57.1385 64.736 64.7483C57.1262 72.358 51.0048 81.4274 46.8392 91.4848C42.8252 101.177 40.6112 111.821 40.6112 123.006C40.6112 134.191 42.8252 144.835 46.8392 154.527C51.0048 164.585 57.1262 173.654 64.736 181.264C72.3457 188.874 81.415 194.995 91.4725 199.161C101.165 203.175 111.809 205.393 122.99 205.393C134.171 205.393 144.818 203.179 154.507 199.161C164.564 194.995 173.634 188.874 181.243 181.264C188.853 173.654 194.975 164.585 199.14 154.527C203.154 144.835 205.368 134.191 205.368 123.01C205.368 111.829 203.154 101.181 199.14 91.493C194.975 81.4355 188.853 72.3662 181.243 64.7565L181.252 64.7483ZM157.172 40.3939C168.131 44.9326 177.98 51.5707 186.205 59.7954C194.429 68.0201 201.067 77.8685 205.606 88.828C209.973 99.3733 212.383 110.915 212.383 123.002C212.383 135.089 209.973 146.631 205.606 157.176C201.067 168.136 194.429 177.984 186.205 186.209C177.98 194.433 168.131 201.071 157.172 205.61C146.627 209.977 135.085 212.388 122.998 212.388C110.911 212.388 99.3692 209.977 88.828 205.61C77.8685 201.071 68.0201 194.433 59.7954 186.209C51.5707 177.984 44.9326 168.136 40.3939 157.176C36.0273 146.635 33.6165 135.089 33.6165 123.002C33.6165 110.915 36.0273 99.3733 40.3939 88.828C44.9326 77.8685 51.5707 68.0201 59.7954 59.7954C68.0201 51.5707 77.8685 44.9326 88.828 40.3939C99.3692 36.0273 110.915 33.6165 123.002 33.6165C135.089 33.6165 146.631 36.0273 157.176 40.3939H157.172Z" fill="#172635"/>
<path fill-rule="evenodd" clip-rule="evenodd" d="M122.998 161.162C104.929 144.229 79.2215 149.284 67.6552 171.302C66.6794 173.159 65.8061 175.135 65.0435 177.23C66.048 175.475 67.1509 173.835 68.3358 172.306C81.6897 155.074 105.679 152.269 123.002 167.685C140.325 152.269 164.314 155.078 177.668 172.306C178.853 173.835 179.952 175.475 180.961 177.23C180.198 175.135 179.325 173.159 178.349 171.302C166.783 149.284 141.071 144.229 123.006 161.162H122.998Z" fill="#D62A56"/>
<path fill-rule="evenodd" clip-rule="evenodd" d="M53.7804 80.8467C56.101 77.8741 58.6184 75.0533 61.3081 72.4046C77.0933 56.8654 98.9057 47.2507 122.998 47.2507C147.09 47.2507 168.902 56.8613 184.687 72.4046C187.377 75.0533 189.89 77.8741 192.215 80.8467C192.637 80.6704 193.047 80.4695 193.441 80.244C190.005 74.6064 185.909 69.4034 181.256 64.7498C173.646 57.1401 164.576 51.0187 154.519 46.853C144.826 42.839 134.183 40.625 122.998 40.625C111.813 40.625 101.169 42.839 91.4764 46.853C81.4189 51.0187 72.3496 57.1401 64.7398 64.7498C60.0863 69.4034 55.9862 74.6023 52.5544 80.244C52.9439 80.4695 53.354 80.6745 53.7804 80.8467Z" fill="#E6E6E6"/>
<path fill-rule="evenodd" clip-rule="evenodd" d="M122.998 16.2045C156.315 16.2045 186.479 30.198 208.316 52.8263C220.633 65.5898 230.301 81.1003 236.389 98.3944C234.918 91.5596 232.839 84.9503 230.223 78.6321C224.352 64.4623 215.733 51.6905 205.024 40.9812C194.315 30.2718 181.543 21.6493 167.373 15.7822C153.72 10.1282 138.734 7.00391 123.002 7.00391C107.27 7.00391 92.2844 10.1241 78.6312 15.7822C64.4613 21.6534 51.6896 30.2718 40.9803 40.9812C30.2709 51.6905 21.6484 64.4623 15.7812 78.6321C13.1613 84.9544 11.0867 91.5596 9.61475 98.3944C15.7033 81.1003 25.3672 65.5898 37.6879 52.8263C59.5249 30.198 89.6891 16.2045 123.006 16.2045H122.998Z" fill="#28F3DB"/>
<path fill-rule="evenodd" clip-rule="evenodd" d="M45.474 218.166C39.7995 220.187 34.166 221.819 28.225 222.848C27.8314 223.278 27.4214 223.705 27.0032 224.123C23.6862 227.432 19.6436 230.265 14.5718 232.672C14.3299 232.786 14.1618 232.926 14.0757 233.061C14.3463 233.209 14.8424 233.295 15.6132 233.278C20.7547 233.168 25.5682 232.561 30.2299 231.585C34.8958 230.609 39.4346 229.244 44.0226 227.612C50.7631 225.222 55.4208 224.061 59.5536 223.988C63.8997 223.91 67.3848 224.996 71.6898 227.075C79.644 230.921 88.0696 233.955 96.8684 236.001C105.249 237.948 113.986 239.002 122.994 239.002C138.726 239.002 153.712 235.882 167.365 230.224C181.535 224.353 194.306 215.734 205.02 205.025C215.729 194.316 224.348 181.544 230.219 167.37C233.138 160.326 235.381 152.925 236.869 145.25C231.1 164.176 220.781 181.109 207.185 194.754C185.639 216.378 155.872 229.756 122.998 229.756C104.105 229.756 86.3025 225.21 70.3696 217.473C62.7517 213.774 58.217 213.619 45.474 218.157V218.166Z" fill="#03BAA5"/>
<path fill-rule="evenodd" clip-rule="evenodd" d="M29.2495 191.346C29.5571 191.756 31.1807 193.941 32.7633 196.943C34.5755 200.37 36.3345 204.864 36.0311 208.98C37.7367 198.484 32.8207 188.87 26.7772 180.653C19.0691 170.013 13.042 158.062 9.12231 145.188C10.0284 149.862 11.2174 154.437 12.6689 158.89C16.4901 170.628 22.1359 181.555 29.2536 191.346H29.2495Z" fill="#03BAA5"/>
</svg>
