<svg width="40" height="46" viewBox="0 0 40 46" fill="none" xmlns="http://www.w3.org/2000/svg">
<mask id="mask0_3427_855" style="mask-type:luminance" maskUnits="userSpaceOnUse" x="0" y="0" width="35" height="46">
<path d="M0 0.646484H34.7819V46.0004H0V0.646484Z" fill="white"/>
</mask>
<g mask="url(#mask0_3427_855)">
<path fill-rule="evenodd" clip-rule="evenodd" d="M34.7368 15.9777V6.49828C34.7368 4.96248 34.1265 3.48793 33.0422 2.40079C31.9559 1.31595 30.4823 0.705078 28.9473 0.705078C22.9033 0.705078 11.8337 0.705078 5.78946 0.705078C4.25481 0.705078 2.78113 1.31595 1.69485 2.40079C0.610583 3.48793 0 4.96248 0 6.49828C0 14.5705 0 32.131 0 40.2034C0 41.7389 0.610583 43.2138 1.69485 44.3006C2.78113 45.3855 4.25481 45.9963 5.78946 45.9963C9.81074 45.9963 15.2631 45.9963 15.2631 45.9963C16.1349 45.9963 16.8421 45.2886 16.8421 44.4165C16.8421 43.5445 16.1349 42.8364 15.2631 42.8364C15.2631 42.8364 9.81074 42.8364 5.78946 42.8364C5.09059 42.8364 4.42335 42.5586 3.92867 42.0657C3.436 41.5704 3.15789 40.9029 3.15789 40.2034V6.49828C3.15789 5.79883 3.436 5.13101 3.92867 4.63605C4.42335 4.14309 5.09059 3.86498 5.78946 3.86498H28.9473C29.6465 3.86498 30.3137 4.14309 30.8084 4.63605C31.3011 5.13101 31.5789 5.79883 31.5789 6.49828V15.9777C31.5789 16.85 32.2864 17.5578 33.1578 17.5578C34.0296 17.5578 34.7368 16.85 34.7368 15.9777Z" fill="#1C1C1C"/>
</g>
<path fill-rule="evenodd" clip-rule="evenodd" d="M39.3325 27.9079C40.5011 26.2419 40.0947 23.9413 38.4295 22.7742L34.9788 20.3581C33.3136 19.191 31.0147 19.5956 29.8482 21.264C27.0168 25.3086 20.1873 35.0681 20.1873 35.0681C20.0484 35.2683 19.9558 35.5001 19.9199 35.7423L18.8482 42.9784C18.701 43.9643 19.1241 44.9482 19.9408 45.5211C20.7579 46.094 21.8272 46.1553 22.703 45.679L29.1327 42.197C29.3472 42.079 29.5324 41.9145 29.6736 41.7147L39.3325 27.9079ZM22.1263 42.3992L22.9894 36.5746L32.4358 23.0756C32.602 22.8375 32.9305 22.7785 33.1683 22.9471L36.6167 25.3632C36.8545 25.5298 36.9135 25.8585 36.7473 26.0963L27.3009 39.5953L22.1263 42.3992Z" fill="#1C1C1C"/>
<path fill-rule="evenodd" clip-rule="evenodd" d="M36.5308 29.1597L29.6317 24.3274C28.9182 23.8258 27.9329 24.0007 27.4339 24.7148C26.9352 25.4289 27.1077 26.4148 27.8213 26.9161L34.7203 31.7487C35.4339 32.248 36.4192 32.0751 36.9182 31.361C37.4192 30.6469 37.2446 29.661 36.5308 29.1597Z" fill="#1C1C1C"/>
<path fill-rule="evenodd" clip-rule="evenodd" d="M7.89437 12.2917H26.8417C27.7134 12.2917 28.4207 11.5839 28.4207 10.7119C28.4207 9.83963 27.7134 9.13184 26.8417 9.13184H7.89437C7.02293 9.13184 6.31543 9.83963 6.31543 10.7119C6.31543 11.5839 7.02293 12.2917 7.89437 12.2917Z" fill="#1C1C1C"/>
<path fill-rule="evenodd" clip-rule="evenodd" d="M7.89437 19.6648H14.2102C15.0819 19.6648 15.7891 18.957 15.7891 18.085C15.7891 17.2127 15.0819 16.5049 14.2102 16.5049H7.89437C7.02293 16.5049 6.31543 17.2127 6.31543 18.085C6.31543 18.957 7.02293 19.6648 7.89437 19.6648Z" fill="#1C1C1C"/>
<path fill-rule="evenodd" clip-rule="evenodd" d="M19.4735 19.6648H24.7366C25.6084 19.6648 26.3156 18.957 26.3156 18.085C26.3156 17.2127 25.6084 16.5049 24.7366 16.5049H19.4735C18.602 16.5049 17.8945 17.2127 17.8945 18.085C17.8945 18.957 18.602 19.6648 19.4735 19.6648Z" fill="#1C1C1C"/>
<path fill-rule="evenodd" clip-rule="evenodd" d="M7.89437 27.0378H18.4207C19.2924 27.0378 19.9996 26.33 19.9996 25.458C19.9996 24.5857 19.2924 23.8779 18.4207 23.8779H7.89437C7.02293 23.8779 6.31543 24.5857 6.31543 25.458C6.31543 26.33 7.02293 27.0378 7.89437 27.0378Z" fill="#1C1C1C"/>
</svg>
