<svg width="45" height="45" viewBox="0 0 45 45" fill="none" xmlns="http://www.w3.org/2000/svg">
<path d="M6.48732 14.0223L0.0374404 43.1033C-0.0784983 43.6261 0.0785459 44.1642 0.456927 44.5431C0.746774 44.8335 1.14834 45 1.55887 45C1.67323 45 1.78653 44.9879 1.89562 44.9631L30.9762 38.5122C31.5069 38.3947 31.9311 38.0184 32.1103 37.5056L36.8627 23.9108L37.0667 23.9914C37.7523 24.2628 38.4711 24.4003 39.2031 24.4003C40.7503 24.4003 42.2059 23.7975 43.3005 22.7029C44.395 21.6078 44.9979 20.1522 44.9979 18.6045C44.9979 17.0567 44.395 15.599 43.3005 14.5045L30.4929 1.69745C29.3994 0.602881 27.9439 0 26.3961 0C24.8483 0 23.3938 0.602881 22.2987 1.69692C21.2036 2.79096 20.6007 4.24652 20.6007 5.79482C20.6007 6.52945 20.7383 7.24827 21.0092 7.93126L21.0903 8.13573L7.49493 12.8876C6.98216 13.0673 6.60536 13.491 6.48732 14.0217V14.0223ZM24.5021 3.90134C25.009 3.39542 25.6815 3.11664 26.3961 3.11664C27.1107 3.11664 27.7837 3.39542 28.2901 3.90134L41.0982 16.7094C41.6041 17.2148 41.8823 17.8872 41.8823 18.6029C41.8818 19.3196 41.603 19.992 41.0971 20.4969C40.5912 21.0033 39.9193 21.2821 39.2041 21.2821C38.489 21.2821 37.816 21.0033 37.3091 20.4974L24.5015 7.68989C23.9951 7.18345 23.7163 6.51048 23.7163 5.79482C23.7163 5.07917 23.9951 4.40672 24.5015 3.90134H24.5021ZM9.34257 15.5442L23.1282 10.7249L34.2731 21.8692L34.2293 21.9941L29.4548 35.6559L6.44305 40.7603L16.9914 30.212L17.1252 30.2747C17.7924 30.5867 18.5001 30.7453 19.229 30.7453C20.5581 30.7453 21.8076 30.2278 22.7472 29.2882C23.6868 28.3486 24.2027 27.1001 24.2027 25.7695C24.2027 24.4388 23.6863 23.1893 22.7477 22.2507C21.8076 21.3106 20.5581 20.7931 19.2295 20.7931C17.9009 20.7931 16.6509 21.3106 15.7102 22.2507C14.2404 23.7205 13.8452 25.9803 14.7263 27.8727L14.7885 28.0066L14.6842 28.1109L4.23811 38.5564L9.34204 15.5437L9.34257 15.5442ZM17.9141 24.4551C18.2656 24.1042 18.7325 23.9108 19.229 23.9108C19.7254 23.9108 20.1913 24.1042 20.5438 24.4546C21.2684 25.1798 21.2679 26.3586 20.5438 27.0833C20.2076 27.4195 19.7286 27.6124 19.2295 27.6124C18.7304 27.6124 18.2514 27.4195 17.9157 27.0838C17.1911 26.3597 17.1906 25.1803 17.9147 24.4551H17.9141Z" fill="#1C1C1C"/>
</svg>
