<svg width="39" height="26" viewBox="0 0 39 26" fill="none" xmlns="http://www.w3.org/2000/svg">
<path d="M8.71105 9.70757C11.1077 9.61706 13.0896 10.3412 14.6567 11.8799C16.3159 13.3281 17.0534 15.2742 16.869 17.718C16.7768 20.0714 15.9472 22.0627 14.3801 23.6919C12.9053 25.2306 11.0156 26 8.71105 26C6.31436 26 4.2403 25.1401 2.48887 23.4204C0.829623 21.7006 0 19.3925 0 16.4961C0 14.3238 0.414812 12.3777 1.24444 10.658C2.07406 8.8477 3.08804 7.26371 4.28639 5.90601C5.48474 4.5483 6.72917 3.41689 8.0197 2.51175C9.4024 1.60662 10.6468 0.88251 11.753 0.339425C12.767 -0.113142 13.5044 -0.113142 13.9653 0.339425C14.4262 0.791998 14.3341 1.24457 13.6888 1.69713C11.5686 3.23586 10.1398 4.77459 9.4024 6.31332C8.75714 7.85205 8.52669 8.98347 8.71105 9.70757ZM30.8343 9.70757C33.231 9.61706 35.2129 10.3412 36.78 11.8799C38.3471 13.3281 39.0845 15.2742 38.9923 17.718C38.808 20.0714 37.9783 22.0627 36.5034 23.6919C35.0286 25.2306 33.0928 26 30.6961 26C28.2994 26 26.2714 25.1401 24.6122 23.4204C22.9529 21.7006 22.1233 19.3925 22.1233 16.4961C22.1233 14.3238 22.5381 12.3777 23.3677 10.658C24.1974 8.8477 25.2113 7.26371 26.4097 5.90601C27.608 4.5483 28.8525 3.41689 30.143 2.51175C31.5257 1.60662 32.724 0.88251 33.738 0.339425C34.752 -0.113142 35.4895 -0.113142 35.9504 0.339425C36.4113 0.791998 36.3652 1.24457 35.8121 1.69713C33.5998 3.23586 32.171 4.77459 31.5257 6.31332C30.8804 7.85205 30.65 8.98347 30.8343 9.70757Z" fill="#1C1C1C"/>
</svg>
